<svg width="24" height="24" viewBox="0 0 24 24" fill="none" xmlns="http://www.w3.org/2000/svg">
<path d="M5.29374 5.29374C5.38661 5.20063 5.49694 5.12675 5.61841 5.07635C5.73988 5.02594 5.8701 5 6.00161 5C6.13313 5 6.26335 5.02594 6.38482 5.07635C6.50629 5.12675 6.61662 5.20063 6.70949 5.29374L12.0006 10.5868L17.2917 5.29374C17.3846 5.20078 17.495 5.12704 17.6164 5.07673C17.7379 5.02642 17.8681 5.00052 17.9996 5.00052C18.131 5.00052 18.2612 5.02642 18.3827 5.07673C18.5041 5.12704 18.6145 5.20078 18.7074 5.29374C18.8004 5.3867 18.8741 5.49706 18.9244 5.61851C18.9747 5.73997 19.0006 5.87015 19.0006 6.00161C19.0006 6.13308 18.9747 6.26326 18.9244 6.38472C18.8741 6.50617 18.8004 6.61653 18.7074 6.70949L13.4143 12.0006L18.7074 17.2917C18.8004 17.3846 18.8741 17.495 18.9244 17.6164C18.9747 17.7379 19.0006 17.8681 19.0006 17.9996C19.0006 18.131 18.9747 18.2612 18.9244 18.3827C18.8741 18.5041 18.8004 18.6145 18.7074 18.7074C18.6145 18.8004 18.5041 18.8741 18.3827 18.9244C18.2612 18.9747 18.131 19.0006 17.9996 19.0006C17.8681 19.0006 17.7379 18.9747 17.6164 18.9244C17.495 18.8741 17.3846 18.8004 17.2917 18.7074L12.0006 13.4143L6.70949 18.7074C6.61653 18.8004 6.50617 18.8741 6.38472 18.9244C6.26326 18.9747 6.13308 19.0006 6.00161 19.0006C5.87015 19.0006 5.73997 18.9747 5.61851 18.9244C5.49706 18.8741 5.3867 18.8004 5.29374 18.7074C5.20078 18.6145 5.12704 18.5041 5.07673 18.3827C5.02642 18.2612 5.00052 18.131 5.00052 17.9996C5.00052 17.8681 5.02642 17.7379 5.07673 17.6164C5.12704 17.495 5.20078 17.3846 5.29374 17.2917L10.5868 12.0006L5.29374 6.70949C5.20063 6.61662 5.12675 6.50629 5.07635 6.38482C5.02594 6.26335 5 6.13313 5 6.00161C5 5.8701 5.02594 5.73988 5.07635 5.61841C5.12675 5.49694 5.20063 5.38661 5.29374 5.29374Z" fill="#DCDCDC"/>
</svg>
