<svg width="65" height="65" viewBox="0 0 65 65" fill="none" xmlns="http://www.w3.org/2000/svg">
<path d="M46.715 40.6254C45.1946 40.6331 43.6953 40.982 42.3277 41.6464C40.9601 42.3109 39.7592 43.2739 38.8135 44.4645L23.965 35.1817C24.5062 33.4351 24.5062 31.5657 23.965 29.8192L38.8135 20.5364C40.3205 22.4025 42.4395 23.675 44.7949 24.1284C47.1504 24.5819 49.5903 24.187 51.6825 23.0137C53.7747 21.8405 55.3841 19.9645 56.2256 17.7183C57.0671 15.472 57.0864 13.0004 56.2801 10.7413C55.4738 8.4822 53.8939 6.58138 51.8203 5.37557C49.7467 4.16976 47.3132 3.7368 44.951 4.15338C42.5887 4.56996 40.4502 5.8092 38.9141 7.65156C37.3781 9.49393 36.5437 11.8205 36.5588 14.2192C36.5684 15.1275 36.7051 16.03 36.965 16.9004L22.1166 26.1832C20.8057 24.533 19.0139 23.3315 16.9896 22.7451C14.9653 22.1588 12.8087 22.2167 10.8188 22.9109C8.82888 23.6051 7.1042 24.9011 5.88382 26.6193C4.66344 28.3376 4.00781 30.3929 4.00781 32.5004C4.00781 34.6079 4.66344 36.6633 5.88382 38.3815C7.1042 40.0997 8.82888 41.3957 10.8188 42.0899C12.8087 42.7841 14.9653 42.842 16.9896 42.2557C19.0139 41.6694 20.8057 40.4678 22.1166 38.8176L36.965 48.1004C36.7051 48.9708 36.5684 49.8733 36.5588 50.7817C36.5588 52.7904 37.1544 54.754 38.2704 56.4242C39.3864 58.0944 40.9726 59.3961 42.8284 60.1648C44.6842 60.9335 46.7263 61.1346 48.6964 60.7428C50.6665 60.3509 52.4762 59.3836 53.8966 57.9632C55.3169 56.5428 56.2842 54.7332 56.6761 52.7631C57.068 50.7929 56.8669 48.7508 56.0982 46.895C55.3295 45.0392 54.0277 43.453 52.3575 42.3371C50.6873 41.2211 48.7237 40.6254 46.715 40.6254V40.6254ZM46.715 8.12541C47.9202 8.12541 49.0984 8.48281 50.1005 9.1524C51.1026 9.82199 51.8837 10.7737 52.3449 11.8872C52.8061 13.0007 52.9268 14.2259 52.6917 15.408C52.4565 16.5901 51.8762 17.6759 51.024 18.5281C50.1717 19.3803 49.0859 19.9607 47.9039 20.1958C46.7218 20.431 45.4965 20.3103 44.383 19.8491C43.2696 19.3878 42.3178 18.6068 41.6482 17.6047C40.9787 16.6026 40.6213 15.4244 40.6213 14.2192C40.6213 12.603 41.2633 11.053 42.4061 9.91023C43.5489 8.76743 45.0989 8.12541 46.715 8.12541V8.12541ZM14.215 38.5942C13.0098 38.5942 11.8316 38.2368 10.8295 37.5672C9.8274 36.8976 9.04635 35.9459 8.58513 34.8324C8.12391 33.7189 8.00323 32.4937 8.23836 31.3116C8.47349 30.1295 9.05386 29.0437 9.90609 28.1915C10.7583 27.3393 11.8441 26.7589 13.0262 26.5238C14.2083 26.2886 15.4335 26.4093 16.547 26.8705C17.6605 27.3317 18.6122 28.1128 19.2818 29.1149C19.9514 30.117 20.3088 31.2952 20.3088 32.5004C20.3088 34.1166 19.6668 35.6665 18.524 36.8093C17.3812 37.9521 15.8312 38.5942 14.215 38.5942ZM46.715 56.8754C45.5098 56.8754 44.3316 56.518 43.3295 55.8484C42.3274 55.1788 41.5463 54.2271 41.0851 53.1136C40.6239 52.0002 40.5032 50.7749 40.7384 49.5928C40.9735 48.4108 41.5539 47.325 42.4061 46.4727C43.2583 45.6205 44.3441 45.0401 45.5262 44.805C46.7083 44.5699 47.9335 44.6906 49.047 45.1518C50.1605 45.613 51.1122 46.394 51.7818 47.3962C52.4514 48.3983 52.8088 49.5764 52.8088 50.7817C52.8088 52.3978 52.1667 53.9478 51.024 55.0906C49.8812 56.2334 48.3312 56.8754 46.715 56.8754V56.8754Z" fill="black"/>
</svg>
