<svg width="19" height="19" viewBox="0 0 19 19" fill="none" xmlns="http://www.w3.org/2000/svg">
<path d="M3.59459 8.55643L4.98228 8.55643C5.06109 8.55643 5.13647 8.5907 5.18958 8.65066L8.93979 12.9731L8.93979 3.32602C8.93979 3.25064 9.00146 3.18896 9.07685 3.18896L10.1048 3.18896C10.1801 3.18896 10.2418 3.25064 10.2418 3.32602L10.2418 12.9731L13.992 8.65066C14.0434 8.5907 14.1188 8.55643 14.1993 8.55644L15.587 8.55644C15.7035 8.55644 15.7669 8.6952 15.6898 8.78258L10.0037 15.3356C9.95229 15.3949 9.88874 15.4424 9.81736 15.475C9.74598 15.5076 9.66842 15.5245 9.58995 15.5245C9.51148 15.5245 9.43392 15.5076 9.36254 15.475C9.29115 15.4424 9.22761 15.3949 9.17621 15.3356L3.4918 8.78258C3.4147 8.69349 3.47809 8.55643 3.59459 8.55643Z" fill="#747474"/>
</svg>
