<svg width="153" height="87" viewBox="0 0 153 87" fill="none" xmlns="http://www.w3.org/2000/svg">
<g opacity="0.3" clip-path="url(#clip0)">
<path d="M146.106 43.1369C145.869 40.0957 149.892 27.8802 147.999 24.0061C138.782 24.5614 126.489 38.7075 122.187 38.7075C117.885 38.7075 107.765 37.8747 107.765 37.8747C107.765 37.8747 115.809 36.4866 113.916 33.7103C112.024 30.9341 100.021 13.7341 95.7191 16.2327C91.4171 18.7313 80.8235 26.7698 80.8235 26.7698C80.8235 26.7698 81.5656 15.9551 74.9513 12.1062C68.337 8.25736 48.4618 -4.81616 43.7619 3.51253C40.7609 9.04553 38.5995 15.1467 37.3735 21.5454C31.2561 22.9969 25.4623 25.9233 20.3591 30.1391C3.54914 39.5404 0 46.4684 0 48.702C0 50.9356 13.2394 69.7761 42.794 69.7761C52.6993 80.5907 62.3787 89.664 67.1432 85.8656C71.9076 82.0672 66.1968 75.5935 66.1968 76.4264C68.3477 75.0383 67.853 69.2208 67.853 69.2208C67.853 69.2208 86.2978 73.9404 90.546 67.8327C97.171 73.3852 109.905 78.925 112.056 75.3159C114.207 71.7068 113.239 58.1159 104.958 59.2264C108.034 54.1787 119.853 53.6866 123.402 53.6866C126.951 53.6866 148.623 63.6684 152.172 59.9962C155.721 56.324 146.536 48.702 146.106 43.1369Z" fill="black"/>
</g>
<defs>
<clipPath id="clip0">
<rect width="153" height="86" fill="white" transform="translate(0 0.748047)"/>
</clipPath>
</defs>
</svg>
