<svg width="51" height="12" viewBox="0 0 51 12" fill="none" xmlns="http://www.w3.org/2000/svg">
<path d="M0.114258 0.950684H4.31375C5.15948 0.950684 5.78649 1.16455 6.19477 1.59227C6.61278 2.01028 6.82178 2.66159 6.82178 3.5462C6.82178 4.11975 6.67597 4.61552 6.38433 5.03352C6.10242 5.45153 5.74761 5.74802 5.31988 5.923C5.89342 6.03965 6.34545 6.3167 6.67597 6.75415C7.0162 7.18188 7.18632 7.75056 7.18632 8.46019C7.18632 9.01429 7.06967 9.49549 6.83636 9.90377C6.61278 10.3023 6.30171 10.6085 5.90314 10.8224C5.50458 11.0363 5.06227 11.1432 4.57622 11.1432H0.114258V0.950684ZM4.53247 5.74802C4.86299 5.74802 5.17406 5.66053 5.4657 5.48555C5.75733 5.31058 5.99063 5.05783 6.16561 4.72731C6.35031 4.3968 6.44266 4.00309 6.44266 3.5462C6.44266 2.71992 6.25796 2.14151 5.88856 1.811C5.52888 1.47076 5.02339 1.30064 4.37208 1.30064H0.522542V5.74802H4.53247ZM4.57622 10.7932C5.22753 10.7932 5.76219 10.6037 6.18019 10.2246C6.5982 9.84544 6.8072 9.25732 6.8072 8.46019C6.8072 7.66307 6.58848 7.07008 6.15103 6.68124C5.71358 6.2924 5.1206 6.09798 4.37208 6.09798H0.522542V10.7932H4.57622Z" fill="black"/>
<path fill-rule="evenodd" clip-rule="evenodd" d="M44.6901 2.71244C45.3758 2.28597 46.1325 2.07274 46.9604 2.07274C47.5039 2.07274 47.9555 2.13545 48.3151 2.26089C48.683 2.37796 49.0802 2.58283 49.5067 2.8755V2.4114C49.0551 2.15218 48.6579 1.97239 48.3151 1.87205C47.9722 1.76334 47.5081 1.70898 46.9228 1.70898C46.0782 1.70898 45.2796 1.9264 44.527 2.36123C43.7828 2.79606 43.1849 3.38978 42.7333 4.14237C42.2901 4.89496 42.0685 5.72699 42.0685 6.63847C42.0685 7.58339 42.2818 8.43633 42.7082 9.19728C43.1431 9.94988 43.7284 10.5436 44.4643 10.9784C45.2002 11.4049 46.0071 11.6181 46.8851 11.6181C47.3869 11.6181 47.8468 11.5596 48.2649 11.4425C48.6913 11.3338 49.1053 11.1582 49.5067 10.9157V10.4516L49.4816 10.4641V7.41615H45.9569V7.7799H49.0676V10.7276C48.7415 10.9115 48.3987 11.0453 48.0391 11.1289C47.6879 11.2126 47.2865 11.2544 46.835 11.2544C46.0656 11.2544 45.3465 11.0495 44.6775 10.6398C44.0169 10.2216 43.4859 9.66138 43.0845 8.95896C42.6831 8.25654 42.4825 7.49559 42.4825 6.6761C42.4825 5.86497 42.679 5.1082 43.072 4.40578C43.4734 3.69499 44.0127 3.13055 44.6901 2.71244ZM38.8546 11.6484C38.8114 10.8787 38.5924 10.1587 38.1977 9.48839C37.7629 8.72744 37.1734 8.12536 36.4291 7.68217C35.6849 7.23898 34.8696 7.01738 33.9832 7.01738C33.1052 7.01738 32.2899 7.24316 31.5373 7.69471C30.7847 8.13791 30.1868 8.73998 29.7436 9.50094C29.3493 10.1704 29.1304 10.8863 29.0869 11.6484H29.5025C29.5472 10.9466 29.7447 10.2893 30.0948 9.67654C30.5046 8.97412 31.0523 8.41804 31.738 8.00829C32.4237 7.59019 33.1721 7.38113 33.9832 7.38113C34.786 7.38113 35.5302 7.59019 36.2159 8.00829C36.9016 8.41804 37.4451 8.97412 37.8465 9.67654C38.1967 10.2893 38.3941 10.9466 38.4388 11.6484H38.8546Z" fill="black"/>
<line x1="9.81348" y1="10.9262" x2="14.4236" y2="10.9262" stroke="black" stroke-width="0.433702"/>
<line x1="19.0768" y1="1.35498" x2="19.0768" y2="11.0467" stroke="black" stroke-width="0.3"/>
<line x1="25.2236" y1="10.8956" x2="18.9291" y2="10.8956" stroke="black" stroke-width="0.3"/>
</svg>
