<svg width="21" height="20" viewBox="0 0 21 20" fill="none" xmlns="http://www.w3.org/2000/svg">
<circle cx="10.5" cy="6" r="5" stroke="white" stroke-width="2"/>
<path fill-rule="evenodd" clip-rule="evenodd" d="M8.22019 9.28711C4.37557 10.2732 1.3831 13.699 0.664887 18C0.556588 18.6485 0.5 19.317 0.5 20H2.5L18.5 20H20.5C20.5 19.317 20.4434 18.6485 20.3351 18C19.6169 13.699 16.6244 10.2732 12.7798 9.28711C12.133 9.73653 11.3473 9.99996 10.5 9.99996C9.65273 9.99996 8.86698 9.73653 8.22019 9.28711ZM10.5 11C14.1732 11 17.482 13.882 18.3046 18L2.69542 18C3.51802 13.882 6.82678 11 10.5 11Z" fill="white"/>
</svg>
