<svg width="65" height="65" viewBox="0 0 65 65" fill="none" xmlns="http://www.w3.org/2000/svg">
<circle cx="32.5" cy="19.5" r="16.25" stroke="black" stroke-width="6.5"/>
<path fill-rule="evenodd" clip-rule="evenodd" d="M25.0906 30.1831C12.5956 33.388 2.87007 44.5216 0.535884 58.4999C0.18391 60.6077 0 62.7802 0 64.9999H6.5H58.5H65C65 62.7802 64.8161 60.6077 64.4641 58.4999C62.1299 44.5216 52.4044 33.388 39.9094 30.1831C37.8073 31.6437 35.2536 32.4999 32.5 32.4999C29.7464 32.4999 27.1927 31.6437 25.0906 30.1831ZM32.5 35.7499C44.438 35.7499 55.1914 45.1165 57.8649 58.4999L7.13512 58.4999C9.80858 45.1165 20.562 35.7499 32.5 35.7499Z" fill="black"/>
</svg>
