<svg width="65" height="65" viewBox="0 0 65 65" fill="none" xmlns="http://www.w3.org/2000/svg">
<path d="M32.4971 13.5415V5.98528C32.4971 4.76653 31.0346 4.17069 30.195 5.03736L19.9034 15.3019C19.3617 15.8436 19.3617 16.6832 19.9034 17.2249L30.1679 27.4894C31.0346 28.329 32.4971 27.7332 32.4971 26.5144V18.9582C42.5992 18.9582 50.5888 28.2207 48.3679 38.7019C47.095 44.8499 42.1117 49.8061 35.9909 51.079C26.3221 53.1103 17.7096 46.4749 16.4096 37.5103C16.22 36.2103 15.0825 35.2082 13.7554 35.2082C12.1304 35.2082 10.8304 36.6436 11.0471 38.2686C12.7263 50.1582 24.0471 58.9603 36.8575 56.4686C45.3075 54.8165 52.1054 48.0186 53.7575 39.5686C56.4388 25.6749 45.8763 13.5415 32.4971 13.5415Z" fill="#2C2C38"/>
</svg>
