<svg width="24" height="24" viewBox="0 0 24 24" fill="none" xmlns="http://www.w3.org/2000/svg">
<path d="M18.8516 10.6919H4.85156C3.74699 10.6919 2.85156 11.5873 2.85156 12.6919V19.6919C2.85156 20.7965 3.74699 21.6919 4.85156 21.6919H18.8516C19.9561 21.6919 20.8516 20.7965 20.8516 19.6919V12.6919C20.8516 11.5873 19.9561 10.6919 18.8516 10.6919Z" stroke="white" stroke-width="1.5" stroke-linecap="round" stroke-linejoin="round"/>
<path d="M6.85156 10.6919V6.69189C6.85156 5.36581 7.37835 4.09404 8.31603 3.15636C9.25371 2.21868 10.5255 1.69189 11.8516 1.69189C13.1776 1.69189 14.4494 2.21868 15.3871 3.15636C16.3248 4.09404 16.8516 5.36581 16.8516 6.69189V10.6919" stroke="white" stroke-width="1.5" stroke-linecap="round" stroke-linejoin="round"/>
</svg>

