<svg width="360" height="269" viewBox="0 0 360 269" fill="none" xmlns="http://www.w3.org/2000/svg">
<g filter="url(#filter0_b)">
<path d="M0 269H360V0.949707C320.816 13.124 287.6 28.4462 256.368 42.8535C213.414 62.6681 174.21 80.7526 128.387 86.5387C77.3421 92.9841 37.0618 85.3611 0.000267029 74.5728L0 269Z" fill="black" fill-opacity="0.1"/>
</g>
<mask id="path-2-inside-1" fill="white">
<path d="M0 79.5748V78.6942C80.0947 77.4894 130.343 74.0228 174.209 67.6436C213.862 61.877 248.299 53.7313 294.862 42.7168L294.867 42.7161C314.101 38.1663 335.404 33.1272 360 27.564V28.4666C335.514 34.0062 314.286 39.0276 295.107 43.5641L295.103 43.5652C248.518 54.5844 214.029 62.7424 174.336 68.5148C130.416 74.9019 80.1216 78.3699 0 79.5748Z"/>
</mask>
<path d="M0 79.5748H-1V80.59L0.0150374 80.5747L0 79.5748ZM0 78.6942L-0.0150409 77.6943L-1 77.7091V78.6942H0ZM174.209 67.6436L174.065 66.654L174.209 67.6436ZM294.862 42.7168L294.698 41.7304L294.665 41.7359L294.632 41.7437L294.862 42.7168ZM294.867 42.7161L295.031 43.7025L295.064 43.6969L295.097 43.6892L294.867 42.7161ZM360 27.564H361V26.3125L359.779 26.5886L360 27.564ZM360 28.4666L360.221 29.4419L361 29.2656V28.4666H360ZM295.107 43.5641L294.877 42.5909L294.865 42.5939L295.107 43.5641ZM295.103 43.5652L295.333 44.5384L295.346 44.5353L295.103 43.5652ZM174.336 68.5148L174.48 69.5044L174.336 68.5148ZM1 79.5748V78.6942H-1V79.5748H1ZM0.0150409 79.6941C80.1303 78.489 130.426 75.0212 174.353 68.6331L174.065 66.654C130.259 73.0245 80.0591 76.4898 -0.0150409 77.6943L0.0150409 79.6941ZM174.353 68.6331C214.057 62.8592 248.536 54.7029 295.092 43.6899L294.632 41.7437C248.062 52.7598 213.668 60.8947 174.065 66.654L174.353 68.6331ZM295.027 43.7032L295.031 43.7025L294.702 41.7297L294.698 41.7304L295.027 43.7032ZM295.097 43.6892C314.331 39.1394 335.63 34.1013 360.221 28.5393L359.779 26.5886C335.178 32.153 313.871 37.1932 294.637 41.7429L295.097 43.6892ZM359 27.564V28.4666H361V27.564H359ZM359.779 27.4912C335.288 33.0321 314.055 38.0545 294.877 42.5909L295.338 44.5372C314.516 40.0007 335.74 34.9804 360.221 29.4419L359.779 27.4912ZM294.865 42.5939L294.861 42.595L295.346 44.5353L295.35 44.5342L294.865 42.5939ZM294.873 42.592C248.281 53.6128 213.834 61.7602 174.192 67.5252L174.48 69.5044C214.223 63.7247 248.755 55.5559 295.333 44.5383L294.873 42.592ZM174.192 67.5252C130.332 73.9035 80.086 77.3703 -0.0150374 78.5749L0.0150374 80.5747C80.1572 79.3694 130.499 75.9002 174.48 69.5044L174.192 67.5252Z" fill="url(#paint0_linear)" mask="url(#path-2-inside-1)"/>
<g opacity="0.1">
<mask id="path-4-inside-2" fill="white">
<path fill-rule="evenodd" clip-rule="evenodd" d="M0 70.9877V70.0979C35.4097 64.9062 62.4019 59.681 85.333 54.864C93.1611 53.2197 100.518 51.6226 107.575 50.0903C152.342 40.371 185.084 33.2622 249.977 33.2622C289.988 33.2622 325.955 36.5288 360 41.7314V42.6221C325.952 37.4131 289.99 34.1426 249.977 34.1426C185.181 34.1427 152.52 41.2335 107.766 50.95C100.707 52.4824 93.3477 54.0801 85.5142 55.7257C62.5366 60.5524 35.4893 65.7874 0 70.9877Z"/>
</mask>
<path d="M0 70.9877H-1V72.1449L0.144984 71.9771L0 70.9877ZM0 70.0979L-0.145066 69.1085L-1 69.2338V70.0979H0ZM85.333 54.864L85.1274 53.8854L85.1274 53.8854L85.333 54.864ZM107.575 50.0903L107.363 49.1131L107.363 49.1131L107.575 50.0903ZM360 41.7314H361V40.8727L360.151 40.7429L360 41.7314ZM360 42.6221L359.849 43.6106L361 43.7867V42.6221H360ZM249.977 34.1426V33.1426V34.1426ZM107.766 50.95L107.553 49.9727L107.766 50.95ZM85.5142 55.7257L85.7197 56.7043L85.7197 56.7043L85.5142 55.7257ZM1 70.9877V70.0979H-1V70.9877H1ZM0.145066 71.0873C35.5798 65.892 62.5927 60.6628 85.5386 55.8427L85.1274 53.8854C62.211 58.6993 35.2396 63.9205 -0.145066 69.1085L0.145066 71.0873ZM85.5386 55.8427C93.3705 54.1976 100.73 52.5997 107.787 51.0676L107.363 49.1131C100.305 50.6454 92.9518 52.2419 85.1274 53.8854L85.5386 55.8427ZM107.787 51.0676C152.528 41.354 185.189 34.2622 249.977 34.2622V32.2622C184.98 32.2622 152.157 39.3879 107.363 49.1131L107.787 51.0676ZM249.977 34.2622C289.932 34.2622 325.848 37.5241 359.849 42.72L360.151 40.7429C326.062 35.5336 290.044 32.2622 249.977 32.2622V34.2622ZM359 41.7314V42.6221H361V41.7314H359ZM360.151 41.6336C326.059 36.4178 290.047 33.1426 249.977 33.1426V35.1426C289.934 35.1426 325.845 38.4083 359.849 43.6106L360.151 41.6336ZM249.977 33.1426C185.076 33.1427 152.335 40.2505 107.553 49.9727L107.978 51.9272C152.705 42.2166 185.286 35.1427 249.977 35.1426V33.1426ZM107.553 49.9727C100.495 51.5053 93.1383 53.1022 85.3086 54.7471L85.7197 56.7043C93.557 55.0579 100.92 53.4596 107.978 51.9272L107.553 49.9727ZM85.3086 54.7471C62.3458 59.5706 35.3192 64.8016 -0.144984 69.9982L0.144984 71.9771C35.6593 66.7731 62.7275 61.5341 85.7197 56.7043L85.3086 54.7471Z" fill="url(#paint1_linear)" mask="url(#path-4-inside-2)"/>
</g>
<g filter="url(#filter1_b)">
<path d="M360 0.949707C320.815 13.124 287.6 28.4462 256.368 42.8535C213.414 62.6681 174.21 80.7526 128.387 86.5387C77.3418 92.9841 37.0615 85.3611 0 74.5728" stroke="url(#paint2_linear)" stroke-opacity="0.3" stroke-width="0.88"/>
</g>
<defs>
<filter id="filter0_b" x="-17" y="-16.0503" width="394" height="302.05" filterUnits="userSpaceOnUse" color-interpolation-filters="sRGB">
<feFlood flood-opacity="0" result="BackgroundImageFix"/>
<feGaussianBlur in="BackgroundImage" stdDeviation="8.5"/>
<feComposite in2="SourceAlpha" operator="in" result="effect1_backgroundBlur"/>
<feBlend mode="normal" in="SourceGraphic" in2="effect1_backgroundBlur" result="shape"/>
</filter>
<filter id="filter1_b" x="-17.733" y="-17.0805" width="395.474" height="124.036" filterUnits="userSpaceOnUse" color-interpolation-filters="sRGB">
<feFlood flood-opacity="0" result="BackgroundImageFix"/>
<feGaussianBlur in="BackgroundImage" stdDeviation="8.805"/>
<feComposite in2="SourceAlpha" operator="in" result="effect1_backgroundBlur"/>
<feBlend mode="normal" in="SourceGraphic" in2="effect1_backgroundBlur" result="shape"/>
</filter>
<linearGradient id="paint0_linear" x1="1561.51" y1="-27.0214" x2="-1518.66" y2="476.032" gradientUnits="userSpaceOnUse">
<stop stop-color="#393939"/>
<stop offset="0.213542" stop-color="#D1D1D1" stop-opacity="0"/>
<stop offset="0.40625" stop-color="#5A5A5A"/>
<stop offset="0.598958" stop-color="#D1D1D1" stop-opacity="0"/>
<stop offset="0.796875" stop-color="#393939"/>
<stop offset="1" stop-color="#D1D1D1" stop-opacity="0"/>
</linearGradient>
<linearGradient id="paint1_linear" x1="2345.97" y1="-255.604" x2="-371.101" y2="455.983" gradientUnits="userSpaceOnUse">
<stop stop-color="#888888"/>
<stop offset="0.213542" stop-color="white" stop-opacity="0"/>
<stop offset="0.40625" stop-color="#888888"/>
<stop offset="0.598958" stop-color="white" stop-opacity="0"/>
<stop offset="0.796875" stop-color="#888888"/>
<stop offset="1" stop-color="white" stop-opacity="0"/>
</linearGradient>
<linearGradient id="paint2_linear" x1="213.7" y1="25.2107" x2="30.4293" y2="35.5068" gradientUnits="userSpaceOnUse">
<stop stop-color="white"/>
<stop offset="1" stop-color="white" stop-opacity="0"/>
</linearGradient>
</defs>
</svg>
