<svg width="361" height="100vh" viewBox="0 0 361 481" fill="none" xmlns="http://www.w3.org/2000/svg">
<g filter="url(#filter0_f)">
<path d="M-117.111 284.081L-101.933 288.365C-100.957 288.64 -100.63 289.35 -100.952 290.493C-101.261 291.588 -101.63 292.756 -102.057 293.998C-102.485 295.24 -102.947 296.51 -103.442 297.81C-103.937 299.11 -104.479 300.345 -105.066 301.516C-105.63 302.694 -106.199 303.664 -106.775 304.427C-106.981 304.703 -107.208 304.87 -107.456 304.929C-107.697 304.964 -107.923 304.9 -108.135 304.737C-108.312 304.636 -108.389 304.499 -108.365 304.325C-108.335 304.128 -108.256 303.893 -108.128 303.621C-107.676 302.746 -107.262 301.783 -106.889 300.732C-106.484 299.663 -106.087 298.529 -105.696 297.328C-105.313 296.151 -104.938 294.959 -104.571 293.751C-104.181 292.55 -103.801 291.295 -103.431 289.986L-117.574 285.994C-118.336 285.779 -118.626 285.35 -118.445 284.707C-118.27 284.088 -117.826 283.879 -117.111 284.081ZM-117.541 307.326L-115.142 298.826C-114.954 298.16 -114.957 297.67 -115.152 297.358C-115.347 297.046 -115.718 296.723 -116.266 296.388C-116.603 296.216 -116.806 296.069 -116.874 295.947C-116.943 295.825 -116.947 295.657 -116.886 295.442C-116.772 295.038 -116.37 294.933 -115.679 295.127L-113.179 295.833C-112.346 296.068 -112.077 296.71 -112.373 297.757L-115.256 307.972L-102.291 311.631C-101.506 311.852 -101.2 312.273 -101.375 312.892C-101.55 313.511 -102.03 313.709 -102.815 313.488L-127.815 306.432C-128.53 306.23 -128.799 305.82 -128.625 305.201C-128.45 304.582 -128.006 304.373 -127.291 304.575L-117.541 307.326ZM-73.8923 299.402C-73.178 299.604 -72.9049 300.002 -73.0729 300.598C-73.2476 301.217 -73.6921 301.425 -74.4064 301.224L-86.192 297.897L-86.9883 300.719C-87.1765 301.386 -86.973 301.803 -86.3777 301.971L-74.3064 305.378C-73.5683 305.586 -73.2832 305.988 -73.4512 306.583C-73.6327 307.226 -74.0805 307.447 -74.7948 307.245L-81.0448 305.481L-81.9923 308.838L-70.7424 312.013C-69.9328 312.242 -69.6121 312.654 -69.7801 313.249C-69.9615 313.892 -70.457 314.099 -71.2665 313.871L-96.2307 306.825C-96.945 306.623 -97.2114 306.201 -97.03 305.558C-96.8619 304.963 -96.4208 304.766 -95.7065 304.968L-84.278 308.193L-83.3305 304.836L-88.0447 303.505C-89.4019 303.122 -89.8587 302.145 -89.4152 300.574L-87.4395 293.574C-87.2177 292.788 -87.1193 292.212 -87.1443 291.845C-87.1454 291.485 -87.3896 291.12 -87.8767 290.751C-88.0947 290.613 -88.2616 290.476 -88.3776 290.34C-88.4869 290.181 -88.5112 289.994 -88.4508 289.779C-88.3432 289.399 -87.9919 289.292 -87.3966 289.46L-71.9324 293.825C-71.1943 294.033 -70.916 294.459 -71.0974 295.101C-71.2654 295.697 -71.7304 295.887 -72.4923 295.672L-84.5994 292.255L-85.6779 296.076L-73.8923 299.402ZM-93.3752 316.653C-92.9115 315.011 -91.8193 313.828 -90.0987 313.105C-88.3714 312.359 -86.4721 312.278 -84.4006 312.863C-82.3292 313.447 -80.7643 314.506 -79.7059 316.039C-78.617 317.554 -78.3044 319.133 -78.7681 320.776C-79.225 322.395 -80.3138 323.566 -82.0344 324.289C-83.7379 325.042 -85.6254 325.126 -87.6968 324.541C-89.7682 323.957 -91.345 322.895 -92.4272 321.355C-93.5161 319.84 -93.8321 318.272 -93.3752 316.653ZM-81.0895 320.121C-80.7737 319.002 -80.952 317.949 -81.6247 316.962C-82.2906 315.952 -83.3973 315.228 -84.945 314.791C-86.5164 314.348 -87.8501 314.383 -88.9461 314.896C-90.0353 315.385 -90.7379 316.19 -91.0537 317.309C-91.3629 318.404 -91.1811 319.445 -90.5085 320.432C-89.8426 321.442 -88.7239 322.169 -87.1525 322.613C-85.6049 323.05 -84.2831 323.011 -83.1871 322.498C-82.0978 322.009 -81.3986 321.216 -81.0895 320.121ZM-43.8781 320.251C-44.1291 320.412 -44.4551 320.474 -44.8562 320.438C-45.2573 320.402 -45.6065 320.136 -45.9038 319.641L-52.3785 309.793C-52.8768 310.192 -53.3988 310.585 -53.9447 310.971C-57.0643 313.098 -60.405 314.597 -63.967 315.468C-64.5477 315.613 -64.9014 315.5 -65.0284 315.13C-65.1553 314.76 -64.9675 314.505 -64.465 314.364C-61.8817 313.499 -59.334 312.123 -56.822 310.236C-54.2794 308.331 -52.4795 306.371 -51.4224 304.356C-51.2233 303.924 -51.2397 303.572 -51.4716 303.301C-51.7036 303.03 -52.0561 302.776 -52.5292 302.54C-52.9547 302.317 -53.1018 302.019 -52.9705 301.644C-52.8086 301.253 -52.4182 301.145 -51.7991 301.319L-49.6206 301.934C-48.7872 302.17 -48.29 302.503 -48.1289 302.934C-47.9611 303.341 -47.9731 303.839 -48.1649 304.427C-48.653 305.883 -49.6169 307.295 -51.0568 308.662L-43.7725 318.237C-43.4551 318.661 -43.3382 319.067 -43.4219 319.455C-43.4818 319.849 -43.6339 320.114 -43.8781 320.251ZM-44.1015 330.059L-69.1014 323.003C-69.8157 322.802 -70.0854 322.391 -69.9107 321.772C-69.7293 321.129 -69.2814 320.909 -68.5671 321.11L-43.5672 328.166C-42.7815 328.388 -42.4794 328.821 -42.6608 329.463C-42.8356 330.082 -43.3158 330.281 -44.1015 330.059ZM-23.9504 330.387L-35.8432 327.03C-37.0813 326.681 -37.482 325.732 -37.0452 324.185L-35.6642 319.292C-35.5231 318.792 -35.538 318.389 -35.7089 318.084C-35.873 317.755 -36.0983 317.46 -36.3846 317.199C-36.5616 317.098 -36.6877 316.998 -36.7627 316.9C-36.8311 316.778 -36.835 316.609 -36.7746 316.395C-36.667 316.014 -36.3038 315.911 -35.6847 316.086L-25.399 318.989L-23.6552 312.81L-33.0123 310.169C-33.7742 309.954 -34.0678 309.537 -33.8931 308.918C-33.7183 308.299 -33.2738 308.09 -32.5596 308.292L-22.0239 311.266C-21.2144 311.494 -20.9507 312.108 -21.233 313.108L-23.0877 319.68C-23.417 320.846 -24.0697 321.292 -25.0459 321.016L-33.0459 318.759L-34.5881 324.223C-34.7897 324.937 -34.6048 325.375 -34.0334 325.536L-23.462 328.52C-22.7001 328.735 -22.4031 329.14 -22.5711 329.735C-22.7526 330.378 -23.2124 330.595 -23.9504 330.387ZM-13.2884 312.42C-13.08 311.682 -13.0937 311.138 -13.3293 310.789C-13.5411 310.447 -13.8802 310.145 -14.3466 309.885C-14.7824 309.608 -15.0941 309.391 -15.2815 309.236C-15.4451 309.087 -15.5 308.917 -15.4462 308.726C-15.332 308.322 -14.9296 308.217 -14.2392 308.412L-11.3463 309.228C-10.4416 309.483 -10.1303 310.111 -10.4125 311.111L-18.5068 339.79C-19.1251 341.98 -20.0175 342.911 -21.1842 342.581L-21.7556 342.42L-16.1208 322.456L-20.8708 321.115C-21.6327 320.9 -21.923 320.471 -21.7415 319.828C-21.5735 319.233 -21.1086 319.043 -20.3467 319.258L-15.5967 320.599L-13.2884 312.42ZM-3.77565 320.658C-4.14525 321.967 -3.98673 323.181 -3.30008 324.301C-2.60671 325.396 -1.6648 326.112 -0.474326 326.448C0.763764 326.797 1.96469 326.686 3.12846 326.115C4.29895 325.52 5.06899 324.568 5.43859 323.258C5.8082 321.949 5.64631 320.746 4.95295 319.651C4.2663 318.532 3.30393 317.797 2.06584 317.448C0.875373 317.112 -0.301746 317.229 -1.46551 317.801C-2.62928 318.372 -3.39933 319.324 -3.77565 320.658ZM-6.09707 320.002C-5.56618 318.121 -4.46272 316.762 -2.78667 315.924C-1.11062 315.086 0.691684 314.939 2.62025 315.484C4.57262 316.035 6.05601 317.109 7.07043 318.706C8.08484 320.303 8.32661 322.043 7.79573 323.924C7.24776 325.774 6.12384 327.115 4.42398 327.946C2.72413 328.777 0.909915 328.921 -1.01865 328.376C-2.9234 327.839 -4.38298 326.771 -5.3974 325.174C-6.38801 323.583 -6.62123 321.86 -6.09707 320.002ZM-1.08914 333.408L-3.85107 343.193C-4.45587 345.336 -5.29398 346.256 -6.36541 345.954L-7.04398 345.763L-3.37484 332.763L-10.0534 330.878C-10.7439 330.683 -10.9984 330.264 -10.8169 329.621C-10.6489 329.026 -10.2078 328.829 -9.49351 329.031L0.899303 331.964C2.35168 332.374 3.59649 332.699 4.63373 332.941C5.70151 333.165 6.81325 333.325 7.96896 333.419C8.62161 333.475 8.93996 333.668 8.92403 333.997C8.93191 334.334 8.73894 334.562 8.34513 334.682C7.72724 334.868 6.70277 334.9 5.27171 334.779C3.84066 334.658 2.13704 334.318 0.160856 333.761L-1.08914 333.408ZM14.4359 320.207C14.6375 319.492 14.6205 318.961 14.3849 318.611C14.1731 318.269 13.834 317.967 13.3676 317.707C12.9317 317.43 12.6201 317.213 12.4327 317.058C12.2691 316.909 12.2142 316.739 12.2679 316.549C12.3822 316.144 12.7845 316.039 13.475 316.234L16.4036 317.06C17.2845 317.309 17.5839 317.933 17.3016 318.933L9.20735 347.612C8.58911 349.802 7.69666 350.733 6.52999 350.403L5.95857 350.242L8.3173 341.885L2.35304 340.202C1.59114 339.987 1.29419 339.582 1.46219 338.986C1.63691 338.367 2.10522 338.165 2.86712 338.38L8.83138 340.064L14.4359 320.207ZM26.9573 331.992C26.5339 333.492 26.7562 334.982 27.6241 336.461C28.5225 337.922 29.7813 338.882 31.4003 339.339C32.9955 339.789 34.5582 339.626 36.0883 338.85C37.6252 338.049 38.6053 336.899 39.0286 335.399C39.452 333.899 39.2178 332.407 38.3261 330.921C37.4411 329.412 36.201 328.432 34.6057 327.982C32.9867 327.525 31.4054 327.708 29.8618 328.532C28.3488 329.339 27.3806 330.492 26.9573 331.992ZM24.6001 331.327C25.1579 329.351 26.4647 327.817 28.5205 326.727C30.6069 325.619 32.8167 325.394 35.1501 326.053C37.4596 326.705 39.2021 328.045 40.3776 330.073C41.5837 332.085 41.9078 334.078 41.35 336.055C40.799 338.007 39.4837 339.525 37.404 340.609C35.3482 341.7 33.1621 341.931 30.8459 341.303C28.5126 340.644 26.7429 339.309 25.5368 337.298C24.3613 335.27 24.0491 333.279 24.6001 331.327ZM40.6481 353.979L15.684 346.933C14.9697 346.732 14.6999 346.321 14.8746 345.702C15.0493 345.083 15.4938 344.875 16.2081 345.076L23.1009 347.022L24.1896 343.164C24.3643 342.545 24.4053 342.081 24.3125 341.772C24.2503 341.446 23.9927 341.13 23.5398 340.822C23.281 340.646 23.0783 340.499 22.9318 340.38C22.8158 340.245 22.7813 340.094 22.8284 339.927C22.9157 339.617 23.3166 339.563 24.0308 339.765L26.388 340.43C27.007 340.605 27.2057 341.085 26.9839 341.871L25.3509 347.657L33.208 349.874L34.2967 346.017C34.4714 345.398 34.5887 344.891 34.6486 344.497C34.739 344.085 34.5578 343.726 34.1048 343.418C33.7984 343.229 33.6162 343.1 33.5582 343.032C33.5069 342.941 33.5014 342.824 33.5417 342.681C33.6224 342.395 34.0198 342.353 34.7341 342.555L36.4841 343.049C37.1508 343.237 37.3699 343.736 37.1414 344.545L35.458 350.509L41.1723 352.122C41.9818 352.351 42.2992 352.774 42.1245 353.393C41.9498 354.012 41.4576 354.208 40.6481 353.979Z" fill="white"/>
</g>
<g filter="url(#filter1_f)">
<circle cx="194.667" cy="186.432" r="40" fill="url(#paint0_linear)" fill-opacity="0.3"/>
</g>
<g filter="url(#filter2_f)">
<circle cx="173.735" cy="45.7876" r="32" fill="url(#paint1_linear)" fill-opacity="0.3"/>
</g>
<g filter="url(#filter3_f)">
<circle cx="139.599" cy="84.5415" r="36" fill="url(#paint2_linear)" fill-opacity="0.3"/>
</g>
<g filter="url(#filter4_f)">
<path d="M48.9761 387.337L47.9607 388.196L48.8197 389.212C49.95 390.548 50.5717 392.366 49.8458 393.924L51.1564 394.203C51.6069 393.141 51.5137 391.963 51.0569 390.803C52.0639 391.405 53.1567 391.66 54.2443 391.381L54.1616 390.076C52.562 390.539 50.9589 389.681 49.8351 388.353L48.9761 387.337ZM50.7633 384.882L52.6298 387.089L51.2785 388.232L51.9632 389.041L53.3145 387.898L56.7311 391.937L57.7389 391.084L51.771 384.03L50.7633 384.882ZM60.3618 380.39L56.4682 383.684L56.1776 383.341L59.8497 380.234L59.3007 379.585L55.6286 382.692L55.3508 382.364L59.191 379.115L58.6161 378.435L53.7759 382.53L56.0429 385.21L60.9366 381.07L60.3618 380.39ZM62.4921 381.561L61.8656 380.821L55.5366 386.175L56.1631 386.916L58.8123 384.675L59.1288 385.049L57.1896 386.689L57.7838 387.392L61.6469 384.123L61.931 384.459L58.0756 387.721L59.5353 389.446L64.5664 385.19L63.9722 384.488L59.9412 387.898L59.6377 387.539L63.4854 384.284L62.0451 382.581L60.1365 384.196L59.82 383.822L62.4921 381.561ZM68.2161 377.073L69.2239 376.22L65.8008 372.174L64.793 373.026L65.9685 374.416L64.8768 375.339L65.5614 376.149L66.6531 375.225L68.2161 377.073ZM61.6104 378.601L63.4511 380.776L64.0313 380.285C65.3139 379.2 66.1725 378.435 67.0282 377.449L66.2748 376.698C65.5284 377.565 64.806 378.229 63.7666 379.121L63.2434 378.503L65.404 376.675L63.5955 374.537L60.4272 377.218L61.1054 378.019L63.2812 376.178L63.7785 376.766L61.6104 378.601ZM68.7335 377.08L67.741 377.92L67.8831 378.088C68.3223 378.607 68.6229 379.427 68.3991 380.323C67.5123 380.406 66.7795 380.004 66.2951 379.431L66.153 379.263L65.1758 380.09L65.3179 380.258C65.9121 380.96 66.1311 381.993 65.4926 383.097L66.6025 383.402C67.0347 382.643 67.1006 381.854 66.8992 381.121C67.5933 381.477 68.3778 381.599 69.2334 381.294C69.6463 380.513 69.6581 379.691 69.4221 378.947C70.1314 379.29 70.913 379.362 71.771 379.03L71.6613 377.878C70.4704 378.375 69.5085 377.996 68.8756 377.248L68.7335 377.08ZM71.6943 370.332L72.3724 371.133L74.0444 369.719L76.1435 372.2L77.1512 371.347L72.8239 366.232L71.8161 367.085L73.3662 368.917L71.6943 370.332ZM73.5616 371.083C72.8915 371.886 72.2267 372.54 71.2254 373.4L69.4428 371.293L71.6262 369.446L70.9481 368.644L67.7645 371.338L70.9099 375.056L71.4748 374.578C72.7651 373.486 73.5497 372.757 74.3096 371.813L73.5616 371.083ZM74.3774 375.423L73.1761 374.003L72.1683 374.856L74.0543 377.085L78.8487 373.029L78.1641 372.219L74.3774 375.423ZM77.653 363.286L76.6453 364.139L80.5722 368.781L81.1829 368.264C82.2059 367.399 83.2842 366.382 84.2456 365.149L83.4488 364.409C82.6254 365.433 81.7357 366.316 80.8695 367.088L77.653 363.286ZM84.6001 360.815L83.6152 361.648L81.3676 358.991L80.3598 359.844L86.3019 366.867L87.3096 366.015L84.3192 362.48L85.3041 361.647L84.6001 360.815ZM88.6467 355.427L90.0438 354.245L89.3398 353.413L85.4767 356.681L86.1807 357.513L87.6389 356.279L87.9683 356.669C88.95 357.829 89.4948 359.634 88.7941 361.144L90.0372 361.467C90.5159 360.408 90.4285 359.159 89.9665 357.978C90.9835 358.545 92.1274 358.782 93.2097 358.482L93.0953 357.217C91.4904 357.658 89.8803 356.885 88.9761 355.816L88.6467 355.427ZM93.5883 353.263L92.5653 354.129L90.2983 351.449L89.2906 352.302L95.239 359.333L96.2468 358.48L93.2693 354.961L94.2923 354.095L93.5883 353.263ZM97.6638 345.231L96.6484 346.09L100.982 351.213L101.998 350.354L97.6638 345.231ZM98.8871 349.789C97.4319 350.391 96.1812 349.904 95.3997 348.98L94.8184 348.293L93.7954 349.158L94.3767 349.846C95.1646 350.777 95.4939 352.188 94.6617 353.573L95.8514 353.942C96.4293 352.969 96.4946 351.931 96.2146 350.95C97.0754 351.348 98.049 351.415 99.0538 351.023L98.8871 349.789ZM99.1521 354.437L97.912 352.972L96.9043 353.824L98.8225 356.092L103.678 351.984L103 351.182L99.1521 354.437Z" fill="white"/>
</g>
<g filter="url(#filter5_f)">
<path d="M343.419 326.219L346.148 327.573L346.4 327.065C346.472 326.919 346.5 326.813 346.482 326.746C346.473 326.676 346.438 326.608 346.377 326.541C346.301 326.474 346.25 326.424 346.223 326.389C346.206 326.351 346.208 326.309 346.232 326.262C346.278 326.169 346.38 326.161 346.537 326.239L347.001 326.469C347.217 326.576 347.265 326.75 347.147 326.989L346.17 328.957C346.011 329.278 345.833 329.454 345.635 329.487L345.696 329.518C345.877 329.607 345.929 329.728 345.854 329.88C345.779 330.031 345.651 330.062 345.47 329.972L342.225 328.362C342.068 328.488 341.919 328.516 341.779 328.447L341.648 328.382L342.968 325.722C343.04 325.576 343.073 325.466 343.067 325.39C343.061 325.314 343.027 325.25 342.966 325.198C342.916 325.137 342.872 325.086 342.834 325.046C342.799 324.999 342.793 324.953 342.816 324.906C342.863 324.813 342.965 324.805 343.122 324.883L343.595 325.117C343.793 325.216 343.833 325.385 343.714 325.624L343.419 326.219ZM345.918 328.036L343.189 326.682L342.698 327.671C342.646 327.776 342.596 327.871 342.547 327.955L345.285 329.314L345.918 328.036ZM343.236 330.717L342.208 332.791C341.936 333.339 341.669 333.548 341.406 333.418L341.249 333.34L342.685 330.444L339.886 329.055C339.711 328.968 339.661 328.849 339.736 328.698C339.812 328.546 339.937 328.514 340.112 328.6L346.235 331.638C346.428 331.734 346.486 331.857 346.411 332.009C346.336 332.161 346.202 332.189 346.01 332.093L343.236 330.717ZM349.664 329.033C349.472 328.938 349.415 328.811 349.493 328.654C349.568 328.502 349.696 328.471 349.877 328.561L351.556 329.394C351.79 329.51 351.844 329.693 351.72 329.944C351.422 330.53 351.002 331.238 350.46 332.066C349.924 332.898 349.54 333.401 349.307 333.577C349.246 333.626 349.184 333.65 349.12 333.647C349.061 333.647 349.01 333.626 348.967 333.582C348.923 333.538 348.904 333.496 348.909 333.456C348.924 333.412 348.96 333.353 349.018 333.28C349.305 332.921 349.638 332.404 350.018 331.727C350.4 331.044 350.752 330.38 351.073 329.732L349.664 329.033ZM352.289 330.335C352.108 330.246 352.057 330.122 352.135 329.965C352.21 329.813 352.332 329.779 352.501 329.863L354.172 330.692C354.417 330.814 354.472 331.011 354.336 331.285C354.107 331.746 353.732 332.407 353.211 333.267C352.689 334.128 352.289 334.678 352.011 334.918C351.95 334.967 351.886 334.994 351.819 334.997C351.76 334.997 351.709 334.975 351.666 334.932C351.628 334.891 351.611 334.85 351.617 334.81C351.626 334.763 351.658 334.706 351.713 334.639C351.988 334.289 352.326 333.726 352.725 332.95C353.133 332.171 353.457 331.533 353.697 331.034L352.289 330.335ZM352.446 337.183L346.322 334.145C346.147 334.058 346.097 333.939 346.172 333.787C346.25 333.63 346.377 333.594 346.552 333.681L352.676 336.719C352.868 336.815 352.925 336.941 352.847 337.099C352.772 337.25 352.638 337.278 352.446 337.183ZM357.642 338.245L354.729 336.8C354.425 336.65 354.368 336.385 354.556 336.006L355.15 334.807C355.211 334.685 355.227 334.58 355.197 334.493C355.171 334.4 355.127 334.312 355.065 334.231C355.025 334.196 354.997 334.164 354.982 334.135C354.97 334.1 354.978 334.057 355.004 334.004C355.05 333.911 355.149 333.902 355.301 333.977L357.82 335.227L358.571 333.714L356.279 332.576C356.092 332.484 356.036 332.362 356.112 332.21C356.187 332.058 356.312 332.026 356.487 332.113L359.068 333.393C359.266 333.492 359.304 333.663 359.183 333.908L358.384 335.518C358.243 335.804 358.052 335.887 357.813 335.769L355.853 334.796L355.189 336.135C355.103 336.31 355.129 336.432 355.269 336.501L357.859 337.786C358.045 337.879 358.102 337.998 358.03 338.144C357.952 338.301 357.822 338.335 357.642 338.245ZM361.271 334.116C361.361 333.935 361.384 333.794 361.34 333.692C361.302 333.593 361.228 333.498 361.12 333.409C361.021 333.316 360.951 333.245 360.91 333.195C360.875 333.149 360.869 333.102 360.892 333.056C360.941 332.956 361.051 332.949 361.22 333.033L361.928 333.384C362.15 333.494 362.2 333.672 362.078 333.917L358.593 340.941C358.327 341.478 358.051 341.675 357.766 341.534L357.626 341.464L360.052 336.574L358.888 335.997C358.701 335.904 358.647 335.779 358.725 335.622C358.798 335.476 358.927 335.449 359.114 335.542L360.277 336.119L361.271 334.116ZM364.412 337.08C364.253 337.401 364.246 337.728 364.393 338.063C364.548 338.394 364.824 338.658 365.221 338.855C365.618 339.052 365.995 339.112 366.353 339.035C366.713 338.952 366.973 338.75 367.132 338.43C367.3 338.091 367.311 337.748 367.164 337.399C367.018 337.05 366.746 336.777 366.349 336.58C365.953 336.384 365.571 336.332 365.205 336.427C364.844 336.524 364.58 336.742 364.412 337.08ZM363.843 336.798C364.072 336.337 364.445 336.039 364.963 335.903C365.489 335.765 366.03 335.833 366.584 336.108C367.138 336.383 367.519 336.772 367.727 337.275C367.944 337.775 367.938 338.255 367.71 338.716C367.493 339.154 367.121 339.434 366.594 339.558C366.077 339.679 365.541 339.602 364.987 339.327C364.433 339.052 364.047 338.672 363.83 338.187C363.622 337.698 363.626 337.235 363.843 336.798ZM364.799 340.782L364.322 341.745C364.05 342.293 363.779 342.5 363.511 342.367L363.354 342.289L364.239 340.504L361.308 339.051C361.133 338.964 361.085 338.842 361.163 338.684C361.235 338.538 361.359 338.509 361.534 338.596L367.658 341.634C367.85 341.729 367.91 341.85 367.838 341.996C367.76 342.153 367.625 342.184 367.432 342.089L364.799 340.782ZM364.619 344.814L361.671 343.351C361.146 343.091 361.01 342.707 361.261 342.2L361.578 341.561C361.659 341.398 361.676 341.268 361.629 341.172C361.591 341.073 361.524 340.974 361.428 340.876C361.323 340.78 361.261 340.713 361.244 340.675C361.226 340.638 361.229 340.595 361.252 340.549C361.301 340.45 361.41 340.442 361.579 340.526L362.227 340.847C362.443 340.954 362.482 341.145 362.347 341.419L361.769 342.582C361.709 342.705 361.734 342.794 361.844 342.849L364.845 344.337C365.032 344.43 365.086 344.555 365.008 344.712C364.93 344.87 364.8 344.904 364.619 344.814ZM373.05 340.984C372.869 340.894 372.816 340.773 372.891 340.622C372.969 340.464 373.093 340.427 373.262 340.511L376.131 341.935C376.376 342.056 376.432 342.244 376.299 342.498C376.033 343.02 375.735 343.533 375.404 344.038C375.083 344.539 374.762 344.973 374.443 345.338C374.391 345.399 374.328 345.43 374.256 345.43C374.186 345.424 374.132 345.401 374.094 345.361C374.047 345.323 374.03 345.278 374.041 345.225C374.053 345.173 374.08 345.118 374.124 345.059C374.405 344.668 374.661 344.247 374.893 343.795C375.133 343.34 375.39 342.835 375.665 342.281L373.05 340.984ZM377.783 342.296C377.87 342.121 377.892 341.983 377.848 341.881C377.804 341.78 377.731 341.685 377.628 341.598C377.523 341.502 377.453 341.431 377.418 341.385C377.383 341.338 377.377 341.292 377.4 341.245C377.449 341.146 377.559 341.138 377.728 341.222L378.445 341.578C378.655 341.682 378.699 341.857 378.578 342.102L377.193 344.892L378.322 345.452C378.514 345.548 378.571 345.674 378.493 345.832C378.415 345.989 378.28 346.02 378.087 345.925L376.959 345.365L375.097 349.118C374.831 349.654 374.555 349.852 374.269 349.71L374.138 349.645L377.783 342.296ZM371.967 345.516L372.831 343.775C372.915 343.606 372.947 343.476 372.926 343.386C372.911 343.299 372.847 343.201 372.733 343.094C372.677 343.045 372.629 342.995 372.588 342.946C372.556 342.894 372.55 342.847 372.57 342.806C372.623 342.701 372.745 342.696 372.937 342.792L373.488 343.065C373.698 343.17 373.738 343.353 373.608 343.615L372.527 345.794L373.035 346.045C373.385 346.219 373.688 346.362 373.945 346.475C374.21 346.585 374.488 346.683 374.78 346.769C374.952 346.818 375.027 346.885 375.007 346.969C374.996 347.051 374.935 347.101 374.824 347.118C374.65 347.134 374.38 347.091 374.016 346.99C373.652 346.889 373.231 346.72 372.752 346.483L370.408 345.32C370.239 345.236 370.193 345.115 370.271 344.958C370.346 344.806 370.469 344.772 370.638 344.856L371.967 345.516ZM380.237 344.713C380.056 344.623 380.005 344.499 380.083 344.342C380.155 344.196 380.276 344.165 380.445 344.249L383.174 345.603C383.285 345.658 383.345 345.735 383.354 345.834C383.372 345.93 383.352 346.014 383.294 346.087C382.804 346.753 382.056 347.323 381.05 347.798C380.05 348.275 379.049 348.564 378.048 348.663C377.853 348.675 377.751 348.625 377.742 348.511C377.736 348.392 377.81 348.316 377.964 348.283C378.918 348.103 379.811 347.79 380.642 347.345C381.477 346.894 382.105 346.395 382.529 345.85L380.237 344.713ZM385.206 345.99C385.296 345.809 385.319 345.668 385.275 345.566C385.237 345.467 385.164 345.373 385.056 345.283C384.956 345.19 384.886 345.119 384.845 345.069C384.81 345.023 384.804 344.976 384.827 344.93C384.877 344.831 384.986 344.823 385.155 344.907L385.864 345.258C386.085 345.368 386.135 345.546 386.014 345.791L382.529 352.816C382.263 353.352 381.987 353.55 381.701 353.408L381.561 353.338L383.761 348.903L382.169 348.113C381.982 348.02 381.928 347.895 382.006 347.738C382.079 347.592 382.208 347.566 382.395 347.658L383.987 348.448L385.206 345.99Z" fill="white"/>
</g>
<g filter="url(#filter6_f)">
<path d="M255.71 383.443L254.396 383.237L253.682 387.812L254.996 388.017L255.71 383.443ZM248.72 382.706L248.558 383.743L251.314 384.173C251.028 385.232 250.003 385.962 247.698 386.008L247.989 387.126C250.957 386.982 252.54 385.853 252.929 383.363L248.72 382.706ZM249.716 390.715L249.809 390.122L254.551 390.863L254.936 388.402L248.869 387.455L248.715 388.443L253.467 389.185L253.384 389.719L248.641 388.979L248.245 391.518L254.529 392.499L254.686 391.491L249.716 390.715ZM257.509 384.685L257.344 385.742L260.318 386.206C259.766 388.185 258.415 389.452 256.13 390.208L256.706 391.32C259.968 390.261 261.371 388.081 261.797 385.354L257.509 384.685ZM265.096 388.47L263.821 388.271L264.364 384.794L263.06 384.59L261.641 393.68L262.945 393.883L263.653 389.348L264.928 389.547L265.096 388.47ZM267.682 387.265L270.626 387.725L270.791 386.667L266.543 386.004L265.591 392.1L266.372 392.222C267.953 392.469 269.205 392.614 270.617 392.581L270.657 391.484C269.45 391.498 268.362 391.399 267.065 391.217L267.682 387.265ZM274.251 389.788L272.927 389.582L273.452 386.222L272.148 386.019L270.724 395.138L272.028 395.342L272.759 390.659L274.083 390.865L274.251 389.788ZM275.687 387.523L275.522 388.58L278.496 389.044C277.944 391.023 276.593 392.289 274.309 393.046L274.884 394.158C278.147 393.099 279.55 390.919 279.975 388.192L275.687 387.523ZM283.274 391.308L282 391.109L282.542 387.631L281.238 387.428L279.819 396.518L281.123 396.721L281.831 392.186L283.106 392.385L283.274 391.308ZM291.678 392.58C290.445 392.63 289.295 392.542 288.164 392.395L288.681 389.086L287.387 388.884L286.7 393.28L287.461 393.399C288.805 393.609 290.181 393.743 291.658 393.68L291.678 392.58ZM288.782 395.376L292.27 395.921L292.055 397.294L288.568 396.75L288.782 395.376ZM287.134 397.568L293.171 398.511L293.703 395.102L287.666 394.16L287.134 397.568ZM293.272 389.306L293.034 390.828L290.831 390.484L290.666 391.541L292.869 391.885L292.461 394.503L293.765 394.707L294.576 389.51L293.272 389.306ZM297.617 396.088C296.955 395.984 296.623 395.194 296.835 393.84C297.044 392.496 297.602 391.844 298.263 391.948C298.935 392.053 299.267 392.843 299.058 394.187C298.846 395.541 298.289 396.193 297.617 396.088ZM302.391 390.73L301.879 394.01L300.357 393.773C300.435 392.105 299.672 390.963 298.447 390.772C297.093 390.561 295.901 391.65 295.59 393.646C295.277 395.651 296.079 397.062 297.432 397.273C298.697 397.471 299.792 396.549 300.202 394.831L301.714 395.067L300.966 399.859L302.27 400.063L303.695 390.933L302.391 390.73ZM312.704 392.35L311.389 392.145L310.362 398.725L311.676 398.93L312.704 392.35ZM310.121 396.511C308.724 395.797 308.236 394.578 308.403 393.51L308.42 393.402L310.218 393.682L310.379 392.655L305.429 391.882L305.268 392.91L307.096 393.195L307.079 393.304C306.902 394.44 306.053 395.532 304.467 395.77L304.97 396.891C306.082 396.711 306.922 396.123 307.466 395.297C307.755 396.172 308.345 396.932 309.303 397.406L310.121 396.511ZM306.717 399.512L307.016 397.595L305.712 397.392L305.251 400.346L311.535 401.327L311.697 400.29L306.717 399.512ZM322.931 393.936L321.505 403.066L322.81 403.269L324.235 394.14L322.931 393.936ZM319.244 394.019C317.87 393.804 316.658 394.89 316.347 396.886C316.034 398.892 316.856 400.305 318.229 400.52C319.602 400.734 320.816 399.638 321.129 397.633C321.441 395.637 320.617 394.233 319.244 394.019ZM319.06 395.194C319.732 395.299 320.084 396.093 319.874 397.437C319.663 398.79 319.086 399.439 318.414 399.334C317.742 399.229 317.39 398.436 317.602 397.082C317.811 395.738 318.388 395.089 319.06 395.194ZM327.296 400.721C326.614 400.614 326.272 399.822 326.483 398.468C326.692 397.135 327.26 396.474 327.942 396.581C328.614 396.686 328.964 397.489 328.756 398.823C328.545 400.177 327.968 400.826 327.296 400.721ZM328.125 395.405C326.742 395.189 325.54 396.277 325.229 398.273C324.915 400.278 325.727 401.69 327.111 401.906C328.484 402.121 329.698 401.025 330.011 399.019C330.322 397.023 329.499 395.619 328.125 395.405ZM333.664 398.891L333.831 397.824L332.576 397.628L332.907 395.504L331.603 395.3L330.183 404.4L331.487 404.604L331.994 401.353L333.249 401.549L333.416 400.482L332.161 400.286L332.409 398.695L333.664 398.891ZM335.23 396.828L335.068 397.865L338.102 398.339C337.599 400.325 336.369 401.591 333.873 402.345L334.394 403.479C337.869 402.422 339.162 400.296 339.597 397.51L335.23 396.828ZM341.139 396.779L339.718 405.878L341.032 406.084L342.453 396.984L341.139 396.779Z" fill="white"/>
</g>
<g filter="url(#filter7_f)">
<path d="M291.384 137.206C292.294 139.146 292.843 141.581 293.03 144.51L303.702 147.37C304.236 147.513 304.66 147.779 304.975 148.168C305.29 148.558 305.369 148.903 305.212 149.204C305.053 149.657 304.767 149.942 304.354 150.061C303.95 150.143 303.491 150.077 302.977 149.863L293.129 146.167L293.173 147.179C293.188 151.32 292.605 155.024 291.425 158.292C291.269 158.803 291.001 159.017 290.623 158.935C290.245 158.853 290.108 158.511 290.212 157.91C290.942 154.331 291.155 150.794 290.852 147.301C290.549 143.807 289.98 141.129 289.145 139.265C288.92 138.824 288.611 138.627 288.217 138.674C287.81 138.698 287.366 138.789 286.886 138.946C286.418 139.126 286.087 139.047 285.891 138.708C285.706 138.334 285.861 138.004 286.357 137.718L288.522 136.468C289.289 136.025 289.887 135.89 290.318 136.062C290.735 136.212 291.091 136.594 291.384 137.206ZM299.219 128.668C298.816 127.969 298.396 127.58 297.959 127.501C297.545 127.409 297.069 127.444 296.53 127.604C296.001 127.729 295.609 127.805 295.354 127.832C295.122 127.846 294.953 127.763 294.849 127.583C294.628 127.199 294.844 126.819 295.498 126.441L298.238 124.859C299.095 124.364 299.797 124.591 300.344 125.538L316.028 152.703C317.226 154.777 317.272 156.134 316.167 156.772L315.626 157.084L304.786 138.309L299.001 141.649C298.302 142.053 297.777 141.95 297.425 141.341C297.099 140.777 297.286 140.294 297.985 139.89L303.77 136.55L299.219 128.668ZM326.411 116.938C327.088 116.547 327.596 116.645 327.934 117.231C328.26 117.795 328.084 118.272 327.408 118.663L316.244 125.108L317.572 127.409C317.95 128.063 318.42 128.227 318.984 127.902L330.418 121.3C331.118 120.896 331.623 120.965 331.936 121.506C332.287 122.115 332.125 122.615 331.448 123.006L318.898 130.252C317.612 130.994 316.54 130.621 315.68 129.132L312.302 123.28C311.872 122.536 311.509 122.038 311.214 121.788C310.942 121.524 310.488 121.44 309.852 121.537C309.587 121.599 309.355 121.613 309.154 121.579C308.954 121.544 308.802 121.437 308.697 121.256C308.489 120.895 308.667 120.552 309.231 120.227L323.879 111.77C324.578 111.366 325.097 111.457 325.435 112.044C325.774 112.63 325.582 113.132 324.86 113.548L313.392 120.169L315.248 123.383L326.411 116.938ZM328.067 130.821L328.556 131.667C329.103 132.614 329.406 133.401 329.467 134.028L335.286 130.668C336.053 130.226 336.703 130.466 337.237 131.391L339.249 134.876C339.887 135.981 339.755 136.794 338.853 137.314L327.452 143.896L328.643 145.96C329.047 146.659 329.52 146.852 330.061 146.54L341.969 139.665C342.69 139.248 343.221 139.333 343.559 139.92C343.898 140.506 343.717 141.001 343.018 141.405L330.163 148.826C328.787 149.621 327.631 149.206 326.693 147.582L325.912 146.229C325.639 145.755 325.335 145.464 325.002 145.356C324.678 145.212 324.291 145.165 323.839 145.216C323.632 145.275 323.435 145.298 323.248 145.286C323.083 145.261 322.948 145.158 322.844 144.978C322.623 144.595 322.817 144.227 323.426 143.876L337.025 136.024L335.267 132.979L322.615 140.284C321.893 140.701 321.376 140.638 321.064 140.097C320.712 139.488 320.875 138.989 321.551 138.598L327.641 135.082L325.902 132.071L315.077 138.321C314.4 138.712 313.886 138.603 313.535 137.994C313.209 137.43 313.385 136.953 314.061 136.562L337.708 122.91C338.475 122.467 339.021 122.528 339.346 123.092C339.698 123.701 339.49 124.226 338.724 124.669L328.067 130.821ZM355.754 114.792L345.233 120.866C344.06 121.543 343.051 121.148 342.204 119.683L340.447 116.638C340.173 116.164 339.859 115.88 339.503 115.785C339.134 115.667 338.746 115.62 338.339 115.644C338.133 115.703 337.965 115.725 337.836 115.71C337.693 115.671 337.564 115.551 337.446 115.348C337.238 114.987 337.427 114.637 338.014 114.299L347.756 108.674L345.178 104.208L336.315 109.326C335.593 109.742 335.063 109.657 334.725 109.071C334.386 108.485 334.555 107.996 335.232 107.606L345.177 101.863C345.967 101.408 346.628 101.642 347.162 102.567L349.975 107.438C350.626 108.566 350.489 109.397 349.564 109.93L341.987 114.305L344.037 117.857C344.428 118.534 344.894 118.716 345.435 118.404L354.738 113.032C355.46 112.616 355.984 112.689 356.309 113.253C356.661 113.862 356.476 114.375 355.754 114.792ZM353.278 97.4569C352.875 96.7578 352.455 96.3688 352.018 96.29C351.604 96.1982 351.128 96.2326 350.589 96.3933C350.06 96.5184 349.668 96.5944 349.413 96.6214C349.181 96.6354 349.012 96.5521 348.908 96.3717C348.687 95.9883 348.903 95.6078 349.557 95.2302L352.297 93.6482C353.154 93.1534 353.85 93.3683 354.383 94.293L362.801 108.873C363.986 110.926 364.026 112.271 362.921 112.909L362.38 113.221L357.556 104.866L353.09 107.444C352.369 107.86 351.845 107.787 351.519 107.223C351.168 106.614 351.353 106.101 352.075 105.685L356.54 103.106L353.278 97.4569ZM356.762 121.381C357.134 122.339 357.338 123.394 357.372 124.547L363.278 125.558C363.359 124.97 363.434 124.37 363.502 123.759C363.683 121.52 363.513 119.559 362.992 117.875C362.881 117.578 362.683 117.392 362.398 117.315C362.136 117.226 361.729 117.251 361.177 117.389C360.89 117.464 360.671 117.501 360.519 117.498C360.39 117.483 360.286 117.407 360.208 117.272C359.987 116.888 360.169 116.527 360.755 116.189L362.785 115.017C363.417 114.652 363.914 114.576 364.276 114.788C364.662 114.986 364.954 115.389 365.154 115.995C365.533 117.069 365.762 118.245 365.838 119.524L372.865 120.835C373.479 120.961 373.911 121.163 374.161 121.44C374.411 121.716 374.493 122.015 374.407 122.335C374.357 122.664 374.163 122.927 373.825 123.122C373.509 123.305 373.071 123.302 372.512 123.114L365.856 121.273C365.82 121.835 365.77 122.375 365.708 122.892C365.364 125.526 364.63 127.874 363.506 129.937C363.173 130.61 362.809 130.865 362.414 130.702C362.032 130.562 361.937 130.241 362.129 129.74C362.404 129.07 362.636 128.379 362.827 127.668L357.292 126.127C357.265 126.654 357.198 127.189 357.091 127.732C356.63 130.163 355.779 132.413 354.538 134.483C354.157 135.124 353.77 135.392 353.379 135.287C353.01 135.17 352.931 134.824 353.142 134.252C353.992 132.287 354.546 130.329 354.802 128.377C355.067 126.389 355.013 124.706 354.639 123.329C354.541 123.055 354.354 122.862 354.079 122.75C353.791 122.616 353.382 122.611 352.853 122.736C352.463 122.841 352.209 122.897 352.093 122.904C351.986 122.876 351.887 122.782 351.796 122.624C351.588 122.264 351.788 121.907 352.397 121.556L354.461 120.364C355.07 120.013 355.551 119.961 355.904 120.208C356.267 120.419 356.553 120.811 356.762 121.381ZM382.223 99.4648L371.769 105.5C370.506 106.229 369.445 105.849 368.586 104.361L363.996 96.4111C363.553 95.6443 363.196 95.1291 362.923 94.8654C362.651 94.6018 362.185 94.5247 361.527 94.6342C361.262 94.6968 361.036 94.722 360.849 94.7099C360.671 94.6623 360.53 94.5482 360.426 94.3678C360.204 93.9844 360.364 93.6365 360.906 93.324L372.949 86.3709C373.625 85.9802 374.139 86.0894 374.491 86.6983C374.829 87.2847 374.649 87.7797 373.95 88.1833L365.121 93.281L370.492 102.584C370.869 103.238 371.329 103.409 371.87 103.096L381.173 97.7252C381.872 97.3215 382.385 97.4016 382.71 97.9654C383.062 98.5744 382.899 99.0741 382.223 99.4648ZM379.53 82.3007C379.126 81.6016 378.706 81.2126 378.27 81.1338C377.856 81.0419 377.379 81.0764 376.841 81.237C376.312 81.3621 375.919 81.4382 375.664 81.4652C375.432 81.4791 375.264 81.3959 375.159 81.2155C374.938 80.8321 375.154 80.4516 375.808 80.074L378.549 78.4919C379.406 77.9971 380.108 78.2233 380.654 79.1706L391.924 98.69C393.135 100.787 393.188 102.155 392.083 102.793L391.541 103.106L384.12 90.2505L377.354 94.1568C376.609 94.5865 376.068 94.5081 375.73 93.9218C375.378 93.3128 375.574 92.7935 376.319 92.3638L383.084 88.4576L379.53 82.3007ZM398.224 108.9L387.23 115.247C385.2 116.419 383.619 116.024 382.486 114.062L380.416 110.476C380.038 109.822 379.66 109.454 379.282 109.372C378.913 109.254 378.413 109.272 377.78 109.427C377.287 109.561 376.957 109.616 376.793 109.591C376.65 109.553 376.521 109.432 376.403 109.229C376.182 108.846 376.376 108.479 376.985 108.127L379.522 106.662C380.334 106.193 381.046 106.489 381.658 107.549L384.919 113.198C385.193 113.672 385.533 113.792 385.939 113.557L397.136 107.092C397.88 106.663 398.428 106.752 398.78 107.361C399.131 107.97 398.946 108.483 398.224 108.9Z" fill="white"/>
</g>
<g filter="url(#filter8_b)">
<path d="M128.706 298.335C13.7231 312.853 -46.6393 255.987 -138.625 252.357V580.246H1272.77V201.541C1259.84 218.48 1189.12 256.471 1009.75 272.926C785.539 293.496 707.927 187.022 512.458 189.442C316.99 191.862 243.689 283.816 128.706 298.335Z" fill="black" fill-opacity="0.1"/>
<path d="M-138.184 579.806V252.815C-100.18 254.39 -67.5794 265.05 -34.1842 275.969C-27.4112 278.184 -20.6054 280.409 -13.7152 282.572C27.2723 295.435 71.1788 306.042 128.761 298.771C174.658 292.976 213.938 274.855 256.9 255.036C267.831 249.994 279 244.841 290.577 239.754C347.676 214.663 414.808 191.091 512.464 189.882C601.755 188.777 666.423 210.411 731.796 232.281C737.914 234.327 744.037 236.376 750.188 238.408C822.075 262.161 897.598 283.657 1009.79 273.365C1099.5 265.135 1162.06 251.518 1203.81 237.833C1224.69 230.991 1240.38 224.13 1251.66 217.913C1262.09 212.161 1268.79 206.946 1272.33 202.785V579.806H-138.184Z" stroke="url(#paint3_linear)" stroke-opacity="0.3" stroke-width="0.880412"/>
</g>
<path d="M-363.608 257.949C-275.055 271.109 -343.937 291.129 -73.7479 291.129C177.831 291.129 192.168 277.547 360.484 239.478C561.747 193.958 675.971 227.958 775.656 257.95C876.634 288.33 944.974 305.376 1084.2 311.286C1210.34 316.64 1400.71 238.66 1453.66 221.986" stroke="url(#paint4_linear)" stroke-width="0.880412" stroke-linecap="round"/>
<path d="M-231.828 303.758C122.333 283.264 100.159 245.203 250.296 245.202C446.765 245.202 545.646 324.008 798.987 324.008C1034.88 324.008 1048.32 313.486 1206.14 283.995C1394.86 248.732 1426.21 267.102 1479.98 283.995" stroke="url(#paint5_linear)" stroke-width="0.880412" stroke-linecap="round"/>
<defs>
<filter id="filter0_f" x="-133.676" y="279.007" width="180.847" height="80.065" filterUnits="userSpaceOnUse" color-interpolation-filters="sRGB">
<feFlood flood-opacity="0" result="BackgroundImageFix"/>
<feBlend mode="normal" in="SourceGraphic" in2="BackgroundImageFix" result="shape"/>
<feGaussianBlur stdDeviation="2.5" result="effect1_foregroundBlur"/>
</filter>
<filter id="filter1_f" x="141.667" y="133.432" width="106" height="106" filterUnits="userSpaceOnUse" color-interpolation-filters="sRGB">
<feFlood flood-opacity="0" result="BackgroundImageFix"/>
<feBlend mode="normal" in="SourceGraphic" in2="BackgroundImageFix" result="shape"/>
<feGaussianBlur stdDeviation="6.5" result="effect1_foregroundBlur"/>
</filter>
<filter id="filter2_f" x="128.735" y="0.787598" width="90" height="90" filterUnits="userSpaceOnUse" color-interpolation-filters="sRGB">
<feFlood flood-opacity="0" result="BackgroundImageFix"/>
<feBlend mode="normal" in="SourceGraphic" in2="BackgroundImageFix" result="shape"/>
<feGaussianBlur stdDeviation="6.5" result="effect1_foregroundBlur"/>
</filter>
<filter id="filter3_f" x="90.5986" y="35.5415" width="98" height="98" filterUnits="userSpaceOnUse" color-interpolation-filters="sRGB">
<feFlood flood-opacity="0" result="BackgroundImageFix"/>
<feBlend mode="normal" in="SourceGraphic" in2="BackgroundImageFix" result="shape"/>
<feGaussianBlur stdDeviation="6.5" result="effect1_foregroundBlur"/>
</filter>
<filter id="filter4_f" x="43.9609" y="341.231" width="63.7173" height="56.9725" filterUnits="userSpaceOnUse" color-interpolation-filters="sRGB">
<feFlood flood-opacity="0" result="BackgroundImageFix"/>
<feBlend mode="normal" in="SourceGraphic" in2="BackgroundImageFix" result="shape"/>
<feGaussianBlur stdDeviation="2" result="effect1_foregroundBlur"/>
</filter>
<filter id="filter5_f" x="337.702" y="322.83" width="50.3759" height="32.6225" filterUnits="userSpaceOnUse" color-interpolation-filters="sRGB">
<feFlood flood-opacity="0" result="BackgroundImageFix"/>
<feBlend mode="normal" in="SourceGraphic" in2="BackgroundImageFix" result="shape"/>
<feGaussianBlur stdDeviation="1" result="effect1_foregroundBlur"/>
</filter>
<filter id="filter6_f" x="243.698" y="378.706" width="102.754" height="31.378" filterUnits="userSpaceOnUse" color-interpolation-filters="sRGB">
<feFlood flood-opacity="0" result="BackgroundImageFix"/>
<feBlend mode="normal" in="SourceGraphic" in2="BackgroundImageFix" result="shape"/>
<feGaussianBlur stdDeviation="2" result="effect1_foregroundBlur"/>
</filter>
<filter id="filter7_f" x="278.521" y="70.9427" width="127.726" height="95.3042" filterUnits="userSpaceOnUse" color-interpolation-filters="sRGB">
<feFlood flood-opacity="0" result="BackgroundImageFix"/>
<feBlend mode="normal" in="SourceGraphic" in2="BackgroundImageFix" result="shape"/>
<feGaussianBlur stdDeviation="3.6473" result="effect1_foregroundBlur"/>
</filter>
<filter id="filter8_b" x="-156.233" y="171.793" width="1446.61" height="426.062" filterUnits="userSpaceOnUse" color-interpolation-filters="sRGB">
<feFlood flood-opacity="0" result="BackgroundImageFix"/>
<feGaussianBlur in="BackgroundImage" stdDeviation="8.80412"/>
<feComposite in2="SourceAlpha" operator="in" result="effect1_backgroundBlur"/>
<feBlend mode="normal" in="SourceGraphic" in2="effect1_backgroundBlur" result="shape"/>
</filter>
<linearGradient id="paint0_linear" x1="194.667" y1="146.432" x2="251.892" y2="242.208" gradientUnits="userSpaceOnUse">
<stop stop-color="#6073DE"/>
<stop offset="1" stop-color="#F6BC4B" stop-opacity="0"/>
</linearGradient>
<linearGradient id="paint1_linear" x1="173.735" y1="13.7876" x2="219.515" y2="90.4085" gradientUnits="userSpaceOnUse">
<stop stop-color="#FB5668"/>
<stop offset="1" stop-color="#F6BC4B" stop-opacity="0"/>
</linearGradient>
<linearGradient id="paint2_linear" x1="139.599" y1="48.5415" x2="191.101" y2="134.74" gradientUnits="userSpaceOnUse">
<stop stop-color="#FFE8BB"/>
<stop offset="1" stop-color="#F6BC4B" stop-opacity="0"/>
</linearGradient>
<linearGradient id="paint3_linear" x1="699.198" y1="215.203" x2="8.05068" y2="358.339" gradientUnits="userSpaceOnUse">
<stop stop-color="white"/>
<stop offset="1" stop-color="white" stop-opacity="0"/>
</linearGradient>
<linearGradient id="paint4_linear" x1="1620.57" y1="189.399" x2="-980.799" y2="1477.83" gradientUnits="userSpaceOnUse">
<stop stop-color="#393939"/>
<stop offset="0.213542" stop-color="#D1D1D1" stop-opacity="0"/>
<stop offset="0.40625" stop-color="#5A5A5A"/>
<stop offset="0.598958" stop-color="#D1D1D1" stop-opacity="0"/>
<stop offset="0.796875" stop-color="#393939"/>
<stop offset="1" stop-color="#D1D1D1" stop-opacity="0"/>
</linearGradient>
<linearGradient id="paint5_linear" x1="2387.65" y1="245.203" x2="153.154" y2="1584.74" gradientUnits="userSpaceOnUse">
<stop stop-color="#888888"/>
<stop offset="0.213542" stop-color="white" stop-opacity="0"/>
<stop offset="0.40625" stop-color="#888888"/>
<stop offset="0.598958" stop-color="white" stop-opacity="0"/>
<stop offset="0.796875" stop-color="#888888"/>
<stop offset="1" stop-color="white" stop-opacity="0"/>
</linearGradient>
</defs>
</svg>
