<svg width="360" height="509" viewBox="0 0 360 509" fill="none" xmlns="http://www.w3.org/2000/svg">
<g filter="url(#filter0_f)">
<path d="M3.11331 340.114C3.3499 340.466 3.36685 341.012 3.16415 341.752L0.918101 349.947L0.405273 349.798V351.807L0.408078 351.808L0.405273 351.818V360.933L6.01744 340.456C6.29207 339.454 5.97847 338.822 5.07667 338.56L2.19325 337.722C1.50503 337.522 1.10535 337.624 0.994187 338.03C0.941877 338.221 0.997574 338.392 1.16127 338.542C1.3487 338.7 1.66012 338.919 2.09552 339.2C2.5612 339.464 2.90046 339.769 3.11331 340.114Z" fill="white"/>
<path fill-rule="evenodd" clip-rule="evenodd" d="M10.3664 349.409C10.883 347.524 11.9725 346.167 13.6349 345.336C15.2974 344.506 17.0898 344.37 19.012 344.928C20.9581 345.494 22.4407 346.582 23.4599 348.192C24.4791 349.802 24.7305 351.549 24.2139 353.434C23.6802 355.288 22.5702 356.627 20.884 357.45C19.1978 358.274 17.3936 358.406 15.4713 357.847C13.5728 357.296 12.1139 356.215 11.0947 354.605C10.0991 353.002 9.85641 351.27 10.3664 349.409ZM12.6803 350.081C12.3206 351.394 12.4859 352.614 13.1761 353.742C13.8727 354.846 14.8144 355.57 16.001 355.915C17.235 356.274 18.4292 356.17 19.5836 355.604C20.7446 355.014 21.5049 354.063 21.8645 352.751C22.2241 351.439 22.0556 350.231 21.3589 349.127C20.6687 347.999 19.7066 347.255 18.4726 346.897C17.286 346.552 16.1155 346.662 14.9611 347.228C13.8067 347.794 13.0464 348.745 12.6803 350.081Z" fill="white"/>
<path d="M15.4324 362.898L12.745 372.703C12.1565 374.85 11.3283 375.769 10.2604 375.458L9.584 375.262L13.1541 362.235L6.49737 360.301C5.80915 360.101 5.55331 359.678 5.72985 359.034C5.89332 358.438 6.33103 358.243 7.04299 358.45L17.4019 361.461C18.8496 361.882 20.0901 362.217 21.1237 362.465C22.1875 362.697 23.2947 362.865 24.4452 362.967C25.0949 363.027 25.4129 363.223 25.399 363.554C25.409 363.891 25.2184 364.119 24.8273 364.237C24.2136 364.42 23.1945 364.445 21.7699 364.315C20.3452 364.184 18.648 363.832 16.6783 363.26L15.4324 362.898Z" fill="white"/>
<path d="M30.7978 349.745C30.9939 349.029 30.9737 348.495 30.7371 348.143C30.5243 347.798 30.185 347.493 29.7193 347.229C29.2839 346.948 28.9725 346.729 28.7851 346.571C28.6214 346.421 28.5657 346.25 28.618 346.059C28.7291 345.653 29.1288 345.551 29.8171 345.751L32.7361 346.599C33.6141 346.854 33.9159 347.483 33.6412 348.485L25.7654 377.222C25.1638 379.417 24.2816 380.345 23.1187 380.007L22.5492 379.842L24.8443 371.468L18.8995 369.74C18.14 369.519 17.8421 369.11 18.0055 368.514C18.1755 367.894 18.6402 367.694 19.3997 367.915L25.3445 369.642L30.7978 349.745Z" fill="white"/>
<path fill-rule="evenodd" clip-rule="evenodd" d="M44.8523 356.38C42.8135 357.462 41.5227 358.993 40.98 360.973C40.4439 362.929 40.7669 364.929 41.9491 366.973C43.1616 369 44.9307 370.351 47.2564 371.027C49.5649 371.672 51.7385 371.454 53.7773 370.372C55.8398 369.298 57.1392 367.782 57.6753 365.826C58.2181 363.845 57.8832 361.842 56.6707 359.815C55.4885 357.772 53.7464 356.415 51.4444 355.746C49.1187 355.07 46.9213 355.281 44.8523 356.38ZM44.0207 366.146C43.1479 364.655 42.9175 363.159 43.3295 361.656C43.7414 360.153 44.6976 359.001 46.1981 358.201C47.7288 357.384 49.301 357.21 50.9148 357.679C52.5048 358.141 53.7448 359.132 54.6347 360.653C55.5312 362.15 55.7734 363.65 55.3615 365.153C54.9496 366.656 53.9815 367.804 52.4573 368.598C50.9397 369.367 49.3858 369.521 47.7958 369.059C46.1821 368.59 44.9237 367.619 44.0207 366.146Z" fill="white"/>
<path d="M32.2053 376.582L57.0881 383.815C57.895 384.049 58.3834 383.856 58.5534 383.236C58.7234 382.616 58.405 382.188 57.5981 381.954L51.9025 380.298L53.5404 374.322C53.7627 373.511 53.5417 373.009 52.8772 372.815L51.1329 372.308C50.4209 372.101 50.0257 372.141 49.9473 372.427C49.908 372.571 49.9142 372.688 49.9658 372.781C50.0239 372.849 50.206 372.979 50.5121 373.171C50.9647 373.483 51.1473 373.845 51.0598 374.258C51.0027 374.653 50.8891 375.161 50.7191 375.781L49.6598 379.646L41.8283 377.37L43.4172 371.573C43.633 370.785 43.4324 370.302 42.8154 370.123L40.4659 369.44C39.754 369.233 39.3555 369.284 39.2705 369.595C39.2247 369.762 39.26 369.913 39.3762 370.05C39.5227 370.17 39.7253 370.319 39.9839 370.497C40.4365 370.809 40.6947 371.129 40.7587 371.457C40.8529 371.767 40.815 372.233 40.645 372.853L39.5857 376.718L32.7153 374.721C32.0034 374.514 31.5624 374.721 31.3924 375.341C31.2224 375.962 31.4934 376.375 32.2053 376.582Z" fill="white"/>
</g>
<g filter="url(#filter1_f)">
<path d="M60.8647 415.807L59.8619 416.681L60.7061 417.708C61.817 419.061 62.4254 420.904 61.7062 422.485L62.9974 422.765C63.4439 421.687 63.3547 420.492 62.9073 419.317C63.8984 419.925 64.9749 420.181 66.0475 419.896L65.969 418.572C64.3913 419.045 62.8134 418.179 61.7089 416.835L60.8647 415.807ZM62.6319 413.313L64.4664 415.546L63.1318 416.709L63.8047 417.528L65.1392 416.365L68.4972 420.453L69.4924 419.586L63.6271 412.446L62.6319 413.313ZM72.1029 408.734L68.2576 412.084L67.9719 411.736L71.5986 408.577L71.059 407.92L67.4324 411.079L67.1594 410.747L70.952 407.443L70.387 406.755L65.6067 410.92L67.8348 413.632L72.6678 409.422L72.1029 408.734ZM74.1998 409.916L73.5841 409.167L67.3335 414.612L67.9492 415.362L70.5656 413.083L70.8766 413.461L68.9615 415.13L69.5455 415.841L73.3607 412.517L73.64 412.857L69.8323 416.174L71.2669 417.92L76.2357 413.591L75.6517 412.881L71.6706 416.349L71.3723 415.986L75.1724 412.675L73.7568 410.952L71.8719 412.594L71.5608 412.215L74.1998 409.916ZM79.8521 405.35L80.8473 404.483L77.483 400.388L76.4878 401.255L77.6431 402.661L76.5649 403.6L77.2377 404.419L78.3159 403.48L79.8521 405.35ZM73.3377 406.916L75.1468 409.118L75.7199 408.619C76.9866 407.515 77.8346 406.736 78.6803 405.734L77.9396 404.974C77.2018 405.856 76.4883 406.531 75.4617 407.438L74.9475 406.812L77.0813 404.953L75.304 402.79L72.1749 405.516L72.8414 406.327L74.9903 404.455L75.4791 405.05L73.3377 406.916ZM80.3619 405.356L79.3818 406.21L79.5214 406.38C79.9531 406.906 80.2474 407.737 80.0247 408.646C79.1505 408.732 78.4292 408.326 77.9531 407.747L77.8135 407.577L76.8484 408.418L76.988 408.588C77.572 409.298 77.7854 410.345 77.1535 411.466L78.2467 411.773C78.6745 411.003 78.7412 410.202 78.5445 409.459C79.2278 409.818 80.0007 409.94 80.8447 409.629C81.2535 408.835 81.2671 408.001 81.0363 407.248C81.7346 407.594 82.5047 407.666 83.3511 407.326L83.2457 406.158C82.0708 406.665 81.1237 406.284 80.5016 405.526L80.3619 405.356ZM83.2961 398.505L83.9626 399.316L85.6138 397.878L87.6768 400.389L88.6721 399.522L84.4191 394.345L83.4239 395.212L84.9473 397.066L83.2961 398.505ZM85.1347 399.263C84.4724 400.078 83.8156 400.743 82.8267 401.618L81.0747 399.486L83.2311 397.607L82.5646 396.796L79.4205 399.535L82.5118 403.298L83.0698 402.812C84.344 401.702 85.119 400.96 85.8703 400.001L85.1347 399.263ZM85.9286 403.662L84.7479 402.225L83.7526 403.092L85.6062 405.348L90.3412 401.223L89.6683 400.404L85.9286 403.662ZM89.1857 391.345L88.1905 392.212L92.0499 396.91L92.6531 396.385C93.6634 395.505 94.7285 394.471 95.679 393.218L94.8954 392.469C94.0815 393.51 93.2025 394.408 92.3469 395.193L89.1857 391.345ZM96.0387 388.822L95.066 389.669L92.857 386.98L91.8617 387.847L97.7017 394.956L98.6969 394.089L95.7579 390.511L96.7306 389.664L96.0387 388.822ZM100.04 383.347L101.42 382.145L100.728 381.303L96.9125 384.627L97.6044 385.469L99.0445 384.214L99.3682 384.608C100.333 385.783 100.866 387.612 100.172 389.145L101.396 389.47C101.87 388.394 101.787 387.128 101.335 385.931C102.336 386.504 103.462 386.742 104.53 386.435L104.42 385.152C102.837 385.603 101.252 384.823 100.364 383.741L100.04 383.347ZM104.915 381.141L103.905 382.021L101.677 379.309L100.682 380.176L106.528 387.293L107.523 386.426L104.597 382.864L105.607 381.983L104.915 381.141ZM71.1968 421.786L70.194 422.66L74.4533 427.845L75.4561 426.971L71.1968 421.786ZM72.3918 426.406C70.9561 427.02 69.7245 426.529 68.9501 425.586L68.3851 424.899L67.3748 425.779L67.9397 426.467C68.7205 427.417 69.0417 428.847 68.2182 430.254L69.3899 430.625C69.9618 429.637 70.0286 428.584 69.7549 427.59C70.6024 427.991 71.5619 428.057 72.5531 427.657L72.3918 426.406ZM72.6419 431.12L71.4232 429.636L70.4279 430.503L72.3132 432.798L77.1085 428.62L76.442 427.809L72.6419 431.12Z" fill="white"/>
</g>
<g filter="url(#filter2_f)">
<path d="M360 365.946V366.516L358.033 365.511C357.731 365.357 357.673 365.089 357.856 364.708L358.437 363.503C358.496 363.38 358.511 363.274 358.481 363.186C358.454 363.092 358.41 363.003 358.349 362.921C358.308 362.886 358.281 362.853 358.266 362.824C358.254 362.788 358.261 362.744 358.286 362.692C358.331 362.598 358.429 362.589 358.58 362.666L360 363.392V363.94L359.133 363.497L358.484 364.843C358.4 365.019 358.427 365.142 358.566 365.213L360 365.946Z" fill="white"/>
<path d="M360 360.926L359.742 360.794C359.568 360.705 359.444 360.737 359.371 360.889C359.298 361.042 359.353 361.165 359.539 361.26L360 361.496V360.926Z" fill="white"/>
<path fill-rule="evenodd" clip-rule="evenodd" d="M349.478 356.142L346.767 354.757L347.055 354.159C347.171 353.918 347.13 353.748 346.933 353.647L346.464 353.407C346.308 353.328 346.207 353.334 346.162 353.428C346.139 353.475 346.145 353.522 346.18 353.569C346.218 353.611 346.262 353.662 346.311 353.724C346.372 353.777 346.406 353.842 346.413 353.918C346.419 353.995 346.387 354.106 346.317 354.253L345.028 356.927L345.159 356.993C345.298 357.064 345.444 357.037 345.599 356.911L348.822 358.558C349.002 358.65 349.128 358.62 349.202 358.467C349.275 358.315 349.222 358.193 349.043 358.101L348.982 358.07C349.178 358.038 349.353 357.861 349.508 357.539L350.462 355.559C350.578 355.319 350.528 355.144 350.314 355.035L349.854 354.799C349.697 354.719 349.596 354.726 349.551 354.82C349.529 354.867 349.526 354.91 349.544 354.948C349.57 354.983 349.621 355.035 349.697 355.103C349.758 355.171 349.793 355.24 349.802 355.31C349.82 355.378 349.794 355.485 349.723 355.632L349.478 356.142ZM346.542 355.223L349.253 356.608L348.634 357.892L345.915 356.503C345.963 356.418 346.012 356.323 346.063 356.217L346.542 355.223Z" fill="white"/>
<path d="M345.612 361.379L346.616 359.295L349.371 360.702C349.562 360.799 349.694 360.772 349.767 360.619C349.841 360.467 349.782 360.342 349.591 360.244L343.509 357.137C343.335 357.048 343.211 357.08 343.138 357.233C343.065 357.385 343.115 357.506 343.288 357.594L346.069 359.015L344.666 361.926L344.823 362.006C345.083 362.139 345.346 361.93 345.612 361.379Z" fill="white"/>
<path d="M352.795 357.256C352.719 357.414 352.776 357.542 352.968 357.64L354.367 358.354C354.053 359.005 353.709 359.674 353.336 360.36C352.965 361.04 352.638 361.56 352.356 361.92C352.3 361.993 352.264 362.052 352.25 362.096C352.245 362.137 352.264 362.18 352.308 362.224C352.351 362.268 352.402 362.29 352.459 362.291C352.523 362.294 352.585 362.271 352.645 362.221C352.874 362.046 353.25 361.54 353.776 360.705C354.306 359.873 354.717 359.162 355.008 358.573C355.13 358.321 355.075 358.135 354.843 358.017L353.175 357.165C352.995 357.073 352.869 357.103 352.795 357.256Z" fill="white"/>
<path d="M355.419 358.596C355.343 358.755 355.395 358.88 355.574 358.971L356.973 359.686C356.739 360.188 356.422 360.83 356.024 361.612C355.633 362.392 355.303 362.958 355.033 363.309C354.979 363.377 354.948 363.434 354.939 363.481C354.934 363.522 354.95 363.563 354.988 363.604C355.032 363.649 355.082 363.671 355.14 363.671C355.206 363.668 355.269 363.642 355.33 363.593C355.604 363.353 355.996 362.801 356.507 361.936C357.017 361.071 357.384 360.407 357.607 359.944C357.74 359.668 357.684 359.469 357.441 359.344L355.781 358.496C355.613 358.411 355.493 358.444 355.419 358.596Z" fill="white"/>
<path d="M349.693 362.774L355.775 365.881C355.967 365.979 356.099 365.951 356.172 365.799C356.249 365.64 356.191 365.512 356 365.415L349.918 362.308C349.744 362.219 349.619 362.254 349.543 362.412C349.469 362.564 349.52 362.685 349.693 362.774Z" fill="white"/>
<path d="M340.785 362.859C340.709 363.017 340.76 363.142 340.94 363.234L343.216 364.397C342.801 364.945 342.182 365.443 341.359 365.893C340.539 366.336 339.657 366.645 338.714 366.821C338.561 366.853 338.489 366.929 338.496 367.049C338.505 367.164 338.607 367.216 338.8 367.205C339.79 367.112 340.779 366.827 341.765 366.352C342.758 365.88 343.495 365.31 343.975 364.642C344.032 364.569 344.051 364.484 344.033 364.387C344.024 364.287 343.964 364.209 343.854 364.153L341.143 362.768C340.975 362.682 340.855 362.712 340.785 362.859Z" fill="white"/>
<path d="M345.933 364.13C345.977 364.233 345.955 364.375 345.868 364.557L344.677 367.029L343.096 366.221C342.91 366.126 342.782 366.152 342.712 366.299C342.635 366.457 342.69 366.583 342.875 366.678L344.457 367.486L342.308 371.946L342.447 372.017C342.731 372.162 343.003 371.964 343.263 371.425L346.665 364.362C346.784 364.115 346.733 363.936 346.513 363.824L345.809 363.464C345.641 363.378 345.533 363.385 345.485 363.485C345.463 363.532 345.469 363.579 345.504 363.626C345.545 363.676 345.615 363.748 345.714 363.843C345.821 363.934 345.894 364.03 345.933 364.13Z" fill="white"/>
</g>
<g filter="url(#filter3_f)">
<path d="M261.779 411.979L260.465 411.768L259.772 416.346L261.085 416.557L261.779 411.979ZM254.795 411.211L254.638 412.249L257.392 412.692C257.111 413.751 256.09 414.478 253.789 414.513L254.084 415.634C257.047 415.503 258.623 414.379 259.001 411.887L254.795 411.211ZM255.824 419.236L255.914 418.643L260.653 419.404L261.026 416.943L254.964 415.968L254.814 416.957L259.563 417.72L259.482 418.254L254.743 417.492L254.358 420.033L260.637 421.043L260.79 420.034L255.824 419.236ZM263.58 413.231L263.42 414.289L266.392 414.767C265.849 416.746 264.505 418.008 262.227 418.756L262.806 419.872C266.06 418.825 267.452 416.649 267.865 413.92L263.58 413.231ZM271.173 417.055L269.899 416.85L270.427 413.37L269.124 413.16L267.745 422.256L269.048 422.466L269.736 417.927L271.01 418.132L271.173 417.055ZM273.75 415.859L276.693 416.332L276.853 415.274L272.617 414.593L271.693 420.693L272.463 420.817C274.042 421.071 275.294 421.221 276.704 421.195L276.739 420.096C275.534 420.105 274.447 420.002 273.151 419.813L273.75 415.859ZM280.321 418.414L278.998 418.201L279.508 414.84L278.205 414.63L276.821 423.756L278.125 423.965L278.835 419.279L280.158 419.492L280.321 418.414ZM281.746 416.151L281.585 417.209L284.557 417.687C284.014 419.666 282.67 420.928 280.392 421.676L280.972 422.792C284.225 421.746 285.617 419.569 286.031 416.84L281.746 416.151ZM289.338 419.975L288.064 419.77L288.592 416.29L287.289 416.08L285.91 425.176L287.213 425.386L287.901 420.848L289.175 421.053L289.338 419.975ZM297.736 421.284C296.505 421.33 295.356 421.236 294.226 421.085L294.728 417.773L293.435 417.565L292.768 421.964L293.528 422.087C294.871 422.302 296.245 422.442 297.721 422.386L297.736 421.284ZM294.855 424.072L298.341 424.633L298.132 426.007L294.647 425.447L294.855 424.072ZM293.219 426.26L299.252 427.23L299.769 423.819L293.736 422.849L293.219 426.26ZM299.314 418.013L299.083 419.536L296.881 419.182L296.721 420.24L298.923 420.594L298.525 423.214L299.829 423.424L300.617 418.223L299.314 418.013ZM303.682 424.823C303.02 424.716 302.685 423.923 302.891 422.569C303.094 421.224 303.648 420.574 304.31 420.68C304.981 420.788 305.316 421.581 305.112 422.926C304.907 424.28 304.353 424.931 303.682 424.823ZM308.426 419.478L307.928 422.761L306.408 422.516C306.479 420.847 305.712 419.7 304.488 419.504C303.135 419.286 301.949 420.372 301.646 422.369C301.342 424.376 302.149 425.792 303.502 426.009C304.765 426.212 305.855 425.294 306.257 423.576L307.768 423.819L307.041 428.614L308.344 428.824L309.729 419.688L308.426 419.478ZM318.731 421.145L317.418 420.934L316.42 427.519L317.733 427.73L318.731 421.145ZM316.17 425.301C314.772 424.58 314.28 423.357 314.442 422.289L314.458 422.18L316.255 422.469L316.411 421.441L311.465 420.645L311.309 421.674L313.135 421.967L313.119 422.076C312.946 423.213 312.103 424.303 310.521 424.535L311.028 425.66C312.137 425.483 312.974 424.899 313.514 424.074C313.805 424.951 314.398 425.715 315.357 426.193L316.17 425.301ZM312.783 428.291L313.074 426.373L311.771 426.164L311.323 429.12L317.602 430.13L317.759 429.091L312.783 428.291ZM328.951 422.778L327.566 431.914L328.87 432.123L330.254 422.988L328.951 422.778ZM325.27 422.845C323.897 422.624 322.692 423.706 322.389 425.703C322.085 427.71 322.911 429.13 324.284 429.35C325.656 429.571 326.863 428.479 327.167 426.472C327.47 424.474 326.642 423.065 325.27 422.845ZM325.091 424.021C325.763 424.129 326.117 424.925 325.914 426.27C325.708 427.625 325.135 428.272 324.463 428.164C323.792 428.056 323.437 427.259 323.643 425.905C323.847 424.56 324.42 423.913 325.091 424.021ZM333.339 429.591C332.657 429.481 332.313 428.686 332.518 427.332C332.72 425.997 333.285 425.338 333.967 425.448C334.638 425.556 334.991 426.362 334.789 427.697C334.583 429.051 334.01 429.699 333.339 429.591ZM334.145 424.271C332.763 424.049 331.567 425.133 331.264 427.13C330.96 429.137 331.777 430.555 333.159 430.777C334.531 430.998 335.738 429.906 336.043 427.898C336.345 425.901 335.517 424.492 334.145 424.271ZM339.691 427.786L339.852 426.718L338.599 426.517L338.921 424.391L337.618 424.181L336.237 433.287L337.54 433.497L338.034 430.244L339.287 430.446L339.449 429.378L338.195 429.176L338.437 427.584L339.691 427.786ZM252.787 423.66L252.629 424.698L255.66 425.185C255.167 427.172 253.944 428.434 251.455 429.178L251.98 430.316C255.445 429.272 256.728 427.149 257.151 424.361L252.787 423.66ZM258.687 423.636L257.306 432.742L258.62 432.953L260 423.847L258.687 423.636Z" fill="white"/>
</g>
<g filter="url(#filter4_f)">
<ellipse cx="181.772" cy="74.2876" rx="31.0734" ry="32" fill="url(#paint0_linear)" fill-opacity="0.3"/>
</g>
<g filter="url(#filter5_f)">
<ellipse cx="202.278" cy="214.932" rx="38.8418" ry="40" fill="url(#paint1_linear)" fill-opacity="0.3"/>
</g>
<g filter="url(#filter6_f)">
<ellipse cx="148.804" cy="113.041" rx="34.9576" ry="36" fill="url(#paint2_linear)" fill-opacity="0.3"/>
</g>
<g filter="url(#filter7_f)">
<path fill-rule="evenodd" clip-rule="evenodd" d="M359.595 147.916V161.158C359.372 161.605 359.133 162.045 358.878 162.477C358.498 163.128 358.114 163.401 357.728 163.298C357.364 163.181 357.288 162.832 357.5 162.252C358.352 160.262 358.911 158.28 359.176 156.305C359.45 154.295 359.407 152.595 359.045 151.205C358.95 150.929 358.766 150.735 358.495 150.624C358.211 150.49 357.808 150.488 357.284 150.617C356.897 150.726 356.647 150.784 356.532 150.792C356.427 150.764 356.329 150.67 356.24 150.511C356.037 150.148 356.237 149.787 356.841 149.428L358.887 148.211C359.147 148.056 359.382 147.958 359.595 147.916ZM359.595 140.61V142.93L349.765 148.775C348.602 149.466 347.607 149.074 346.779 147.598L345.06 144.532C344.793 144.055 344.484 143.77 344.133 143.675C343.769 143.559 343.386 143.514 342.984 143.541C342.78 143.602 342.613 143.625 342.486 143.61C342.345 143.572 342.218 143.451 342.103 143.247C341.9 142.884 342.089 142.529 342.67 142.183L352.332 136.439L349.811 131.942L341.021 137.168C340.306 137.594 339.782 137.511 339.451 136.921C339.12 136.331 339.29 135.836 339.961 135.437L349.824 129.573C350.607 129.107 351.26 129.34 351.782 130.271L354.532 135.176C355.168 136.312 355.028 137.152 354.111 137.697L346.596 142.165L348.601 145.742C348.983 146.423 349.443 146.604 349.98 146.285L359.205 140.8C359.342 140.718 359.472 140.655 359.595 140.61ZM359.595 122.984L358.968 121.866C358.446 120.934 357.76 120.722 356.91 121.227L354.192 122.843C353.544 123.228 353.328 123.614 353.544 124C353.646 124.182 353.812 124.265 354.042 124.249C354.294 124.22 354.682 124.141 355.206 124.011C355.739 123.846 356.21 123.808 356.618 123.898C357.049 123.975 357.462 124.366 357.856 125.07L359.595 128.17V122.984ZM359.595 131.621V133.983L357.61 135.163C356.895 135.588 356.378 135.517 356.059 134.949C355.716 134.336 355.902 133.817 356.617 133.391L359.595 131.621ZM332.692 145.209C332.361 144.619 331.86 144.523 331.189 144.922L320.118 151.504L318.304 148.268L329.676 141.507C330.392 141.081 330.585 140.573 330.253 139.983C329.922 139.392 329.41 139.303 328.717 139.715L314.191 148.352C313.631 148.685 313.454 149.032 313.657 149.396C313.759 149.577 313.909 149.685 314.107 149.719C314.305 149.753 314.535 149.737 314.797 149.672C315.426 149.571 315.874 149.652 316.142 149.917C316.432 150.169 316.787 150.669 317.207 151.418L320.511 157.312C321.351 158.81 322.409 159.181 323.683 158.423L336.13 151.023C336.801 150.624 336.964 150.118 336.621 149.505C336.315 148.959 335.816 148.893 335.122 149.305L323.783 156.047C323.224 156.38 322.76 156.217 322.391 155.558L321.092 153.242L332.163 146.659C332.834 146.26 333.01 145.777 332.692 145.209ZM333.219 159.793L332.742 158.942L343.309 152.658C344.07 152.206 344.278 151.674 343.934 151.061C343.616 150.493 343.077 150.435 342.316 150.887L318.866 164.83C318.195 165.229 318.019 165.712 318.337 166.28C318.681 166.893 319.188 167 319.859 166.601L330.594 160.218L332.294 163.25L326.255 166.84C325.584 167.239 325.421 167.745 325.765 168.358C326.07 168.903 326.581 168.963 327.297 168.538L339.844 161.078L341.562 164.143L328.076 172.162C327.472 172.521 327.278 172.893 327.495 173.28C327.597 173.461 327.729 173.564 327.892 173.589C328.077 173.6 328.272 173.575 328.476 173.514C328.923 173.46 329.306 173.505 329.625 173.648C329.953 173.756 330.251 174.048 330.519 174.525L331.283 175.887C332.199 177.522 333.34 177.934 334.704 177.123L347.452 169.543C348.146 169.131 348.327 168.63 347.996 168.039C347.665 167.449 347.142 167.366 346.426 167.792L334.617 174.813C334.08 175.132 333.614 174.94 333.22 174.236L332.055 172.158L343.36 165.436C344.255 164.904 344.39 164.082 343.767 162.969L341.8 159.46C341.278 158.529 340.636 158.29 339.876 158.742L334.106 162.173C334.049 161.54 333.754 160.747 333.219 159.793ZM298.035 172.991C297.867 170.033 297.339 167.576 296.452 165.621C296.166 165.004 295.817 164.621 295.405 164.472C294.981 164.3 294.389 164.44 293.628 164.893L291.481 166.169C290.989 166.462 290.834 166.796 291.015 167.173C291.206 167.514 291.533 167.592 291.996 167.407C292.472 167.245 292.911 167.151 293.313 167.124C293.703 167.074 294.007 167.271 294.227 167.716C295.041 169.594 295.587 172.297 295.866 175.825C296.144 179.354 295.912 182.928 295.169 186.55C295.062 187.158 295.196 187.502 295.569 187.583C295.943 187.664 296.208 187.446 296.365 186.928C297.551 183.619 298.15 179.872 298.16 175.688L298.123 174.665L307.832 178.339C308.339 178.552 308.792 178.616 309.191 178.53C309.6 178.408 309.885 178.118 310.045 177.659C310.202 177.354 310.126 177.006 309.817 176.614C309.508 176.222 309.09 175.956 308.564 175.815L298.035 172.991ZM303.008 155.773C303.439 155.85 303.852 156.24 304.246 156.944L308.696 164.881L302.959 168.292C302.266 168.704 302.079 169.194 302.397 169.762C302.741 170.375 303.259 170.476 303.953 170.063L309.689 166.652L320.288 185.558L320.825 185.239C321.921 184.587 321.883 183.217 320.712 181.128L305.377 153.774C304.842 152.82 304.15 152.596 303.3 153.101L300.582 154.717C299.934 155.103 299.718 155.489 299.934 155.875C300.036 156.056 300.202 156.139 300.432 156.124C300.684 156.095 301.072 156.016 301.596 155.886C302.129 155.72 302.6 155.683 303.008 155.773Z" fill="white"/>
</g>
<mask id="path-9-inside-1" fill="white">
<path d="M0.405273 319.575V318.694C80.5 317.489 130.748 314.023 174.614 307.644C214.268 301.877 248.704 293.731 295.268 282.717L295.272 282.716C314.506 278.166 335.81 273.127 360.405 267.564V268.467C335.919 274.006 314.691 279.028 295.513 283.564L295.508 283.565C248.923 294.584 214.434 302.742 174.741 308.515C130.821 314.902 80.5269 318.37 0.405273 319.575Z"/>
</mask>
<path d="M0.405273 319.575H-0.594727V320.59L0.420311 320.575L0.405273 319.575ZM0.405273 318.694L0.390233 317.694L-0.594727 317.709V318.694H0.405273ZM174.614 307.644L174.47 306.654L174.614 307.644ZM295.268 282.717L295.103 281.73L295.07 281.736L295.037 281.744L295.268 282.717ZM295.272 282.716L295.436 283.702L295.469 283.697L295.502 283.689L295.272 282.716ZM360.405 267.564H361.405V266.313L360.185 266.589L360.405 267.564ZM360.405 268.467L360.626 269.442L361.405 269.266V268.467H360.405ZM295.513 283.564L295.282 282.591L295.27 282.594L295.513 283.564ZM295.508 283.565L295.738 284.538L295.751 284.535L295.508 283.565ZM174.741 308.515L174.885 309.504L174.741 308.515ZM1.40527 319.575V318.694H-0.594727V319.575H1.40527ZM0.420314 319.694C80.5356 318.489 130.832 315.021 174.758 308.633L174.47 306.654C130.665 313.024 80.4644 316.49 0.390233 317.694L0.420314 319.694ZM174.758 308.633C214.462 302.859 248.941 294.703 295.498 283.69L295.037 281.744C248.467 292.76 214.073 300.895 174.47 306.654L174.758 308.633ZM295.432 283.703L295.436 283.702L295.108 281.73L295.103 281.73L295.432 283.703ZM295.502 283.689C314.737 279.139 336.036 274.101 360.626 268.539L360.185 266.589C335.584 272.153 314.276 277.193 295.042 281.743L295.502 283.689ZM359.405 267.564V268.467H361.405V267.564H359.405ZM360.185 267.491C335.693 273.032 314.461 278.054 295.283 282.591L295.743 284.537C314.921 280.001 336.145 274.98 360.626 269.442L360.185 267.491ZM295.27 282.594L295.266 282.595L295.751 284.535L295.755 284.534L295.27 282.594ZM295.278 282.592C248.686 293.613 214.24 301.76 174.597 307.525L174.885 309.504C214.629 303.725 249.16 295.556 295.738 284.538L295.278 282.592ZM174.597 307.525C130.737 313.903 80.4913 317.37 0.390236 318.575L0.420311 320.575C80.5624 319.369 130.904 315.9 174.885 309.504L174.597 307.525Z" fill="url(#paint3_linear)" mask="url(#path-9-inside-1)"/>
<g opacity="0.1">
<mask id="path-11-inside-2" fill="white">
<path fill-rule="evenodd" clip-rule="evenodd" d="M0.405273 310.988V310.098C35.8149 304.906 62.8071 299.681 85.7383 294.864C93.5664 293.22 100.923 291.623 107.98 290.09C152.748 280.371 185.49 273.262 250.382 273.262C290.393 273.262 326.36 276.529 360.405 281.731V282.622C326.357 277.413 290.396 274.143 250.382 274.143C185.586 274.143 152.925 281.234 108.171 290.95C101.112 292.482 93.7529 294.08 85.9194 295.726C62.9419 300.552 35.8945 305.787 0.405273 310.988Z"/>
</mask>
<path d="M0.405273 310.988H-0.594727V312.145L0.550257 311.977L0.405273 310.988ZM0.405273 310.098L0.260208 309.108L-0.594727 309.234V310.098H0.405273ZM85.7383 294.864L85.5327 293.885L85.5327 293.885L85.7383 294.864ZM107.98 290.09L107.768 289.113L107.768 289.113L107.98 290.09ZM360.405 281.731H361.405V280.873L360.556 280.743L360.405 281.731ZM360.405 282.622L360.254 283.611L361.405 283.787V282.622H360.405ZM250.382 274.143V273.143V274.143ZM108.171 290.95L107.959 289.973L108.171 290.95ZM85.9194 295.726L86.125 296.704L86.125 296.704L85.9194 295.726ZM1.40527 310.988V310.098H-0.594727V310.988H1.40527ZM0.550339 311.087C35.985 305.892 62.998 300.663 85.9439 295.843L85.5327 293.885C62.6163 298.699 35.6448 303.92 0.260208 309.108L0.550339 311.087ZM85.9438 295.843C93.7758 294.198 101.135 292.6 108.192 291.068L107.768 289.113C100.71 290.645 93.357 292.242 85.5327 293.885L85.9438 295.843ZM108.192 291.068C152.933 281.354 185.595 274.262 250.382 274.262V272.262C185.385 272.262 152.562 279.388 107.768 289.113L108.192 291.068ZM250.382 274.262C290.337 274.262 326.253 277.524 360.254 282.72L360.556 280.743C326.467 275.534 290.449 272.262 250.382 272.262V274.262ZM359.405 281.731V282.622H361.405V281.731H359.405ZM360.557 281.634C326.465 276.418 290.452 273.143 250.382 273.143V275.143C290.339 275.143 326.25 278.408 360.254 283.611L360.557 281.634ZM250.382 273.143C185.482 273.143 152.74 280.25 107.959 289.973L108.383 291.927C153.111 282.217 185.691 275.143 250.382 275.143V273.143ZM107.959 289.973C100.9 291.505 93.5436 293.102 85.7138 294.747L86.125 296.704C93.9623 295.058 101.325 293.46 108.383 291.927L107.959 289.973ZM85.7139 294.747C62.7511 299.571 35.7245 304.802 0.26029 309.998L0.550257 311.977C36.0646 306.773 63.1327 301.534 86.125 296.704L85.7139 294.747Z" fill="url(#paint4_linear)" mask="url(#path-11-inside-2)"/>
</g>
<g filter="url(#filter8_b)">
<path d="M360.405 240.95C321.221 253.124 288.005 268.446 256.773 282.854C213.819 302.668 174.615 320.753 128.792 326.539C77.7471 332.984 37.4668 325.361 0.405273 314.573" stroke="url(#paint5_linear)" stroke-opacity="0.3" stroke-width="0.88"/>
</g>
<path d="M0.405273 509H360.406V240.95C321.221 253.124 288.006 268.446 256.773 282.854C213.819 302.668 174.615 320.753 128.792 326.539C77.7473 332.984 37.4671 325.361 0.40554 314.573L0.405273 509Z" fill="black" fill-opacity="0.1"/>
<defs>
<filter id="filter0_f" x="-11.5947" y="325.623" width="82.1925" height="70.2886" filterUnits="userSpaceOnUse" color-interpolation-filters="sRGB">
<feFlood flood-opacity="0" result="BackgroundImageFix"/>
<feBlend mode="normal" in="SourceGraphic" in2="BackgroundImageFix" result="shape"/>
<feGaussianBlur stdDeviation="6" result="effect1_foregroundBlur"/>
</filter>
<filter id="filter1_f" x="47.8618" y="367.309" width="71.6614" height="77.489" filterUnits="userSpaceOnUse" color-interpolation-filters="sRGB">
<feFlood flood-opacity="0" result="BackgroundImageFix"/>
<feBlend mode="normal" in="SourceGraphic" in2="BackgroundImageFix" result="shape"/>
<feGaussianBlur stdDeviation="6" result="effect1_foregroundBlur"/>
</filter>
<filter id="filter2_f" x="326.495" y="341.352" width="45.5051" height="42.7105" filterUnits="userSpaceOnUse" color-interpolation-filters="sRGB">
<feFlood flood-opacity="0" result="BackgroundImageFix"/>
<feBlend mode="normal" in="SourceGraphic" in2="BackgroundImageFix" result="shape"/>
<feGaussianBlur stdDeviation="6" result="effect1_foregroundBlur"/>
</filter>
<filter id="filter3_f" x="239.455" y="399.211" width="112.398" height="46.2859" filterUnits="userSpaceOnUse" color-interpolation-filters="sRGB">
<feFlood flood-opacity="0" result="BackgroundImageFix"/>
<feBlend mode="normal" in="SourceGraphic" in2="BackgroundImageFix" result="shape"/>
<feGaussianBlur stdDeviation="6" result="effect1_foregroundBlur"/>
</filter>
<filter id="filter4_f" x="137.699" y="29.2876" width="88.1469" height="90" filterUnits="userSpaceOnUse" color-interpolation-filters="sRGB">
<feFlood flood-opacity="0" result="BackgroundImageFix"/>
<feBlend mode="normal" in="SourceGraphic" in2="BackgroundImageFix" result="shape"/>
<feGaussianBlur stdDeviation="6.5" result="effect1_foregroundBlur"/>
</filter>
<filter id="filter5_f" x="150.436" y="161.932" width="103.684" height="106" filterUnits="userSpaceOnUse" color-interpolation-filters="sRGB">
<feFlood flood-opacity="0" result="BackgroundImageFix"/>
<feBlend mode="normal" in="SourceGraphic" in2="BackgroundImageFix" result="shape"/>
<feGaussianBlur stdDeviation="6.5" result="effect1_foregroundBlur"/>
</filter>
<filter id="filter6_f" x="100.847" y="64.0414" width="95.9152" height="98" filterUnits="userSpaceOnUse" color-interpolation-filters="sRGB">
<feFlood flood-opacity="0" result="BackgroundImageFix"/>
<feBlend mode="normal" in="SourceGraphic" in2="BackgroundImageFix" result="shape"/>
<feGaussianBlur stdDeviation="6.5" result="effect1_foregroundBlur"/>
</filter>
<filter id="filter7_f" x="283.647" y="113.666" width="83.242" height="81.2286" filterUnits="userSpaceOnUse" color-interpolation-filters="sRGB">
<feFlood flood-opacity="0" result="BackgroundImageFix"/>
<feBlend mode="normal" in="SourceGraphic" in2="BackgroundImageFix" result="shape"/>
<feGaussianBlur stdDeviation="3.6473" result="effect1_foregroundBlur"/>
</filter>
<filter id="filter8_b" x="-17.3278" y="222.92" width="395.474" height="124.036" filterUnits="userSpaceOnUse" color-interpolation-filters="sRGB">
<feFlood flood-opacity="0" result="BackgroundImageFix"/>
<feGaussianBlur in="BackgroundImage" stdDeviation="8.805"/>
<feComposite in2="SourceAlpha" operator="in" result="effect1_backgroundBlur"/>
<feBlend mode="normal" in="SourceGraphic" in2="effect1_backgroundBlur" result="shape"/>
</filter>
<linearGradient id="paint0_linear" x1="181.772" y1="42.2876" x2="228.178" y2="117.708" gradientUnits="userSpaceOnUse">
<stop stop-color="#FB5668"/>
<stop offset="1" stop-color="#F6BC4B" stop-opacity="0"/>
</linearGradient>
<linearGradient id="paint1_linear" x1="202.278" y1="174.932" x2="260.286" y2="269.207" gradientUnits="userSpaceOnUse">
<stop stop-color="#6073DE"/>
<stop offset="1" stop-color="#F6BC4B" stop-opacity="0"/>
</linearGradient>
<linearGradient id="paint2_linear" x1="148.804" y1="77.0414" x2="201.011" y2="161.889" gradientUnits="userSpaceOnUse">
<stop stop-color="#FFE8BB"/>
<stop offset="1" stop-color="#F6BC4B" stop-opacity="0"/>
</linearGradient>
<linearGradient id="paint3_linear" x1="1561.92" y1="212.979" x2="-1518.25" y2="716.032" gradientUnits="userSpaceOnUse">
<stop stop-color="#393939"/>
<stop offset="0.213542" stop-color="#D1D1D1" stop-opacity="0"/>
<stop offset="0.40625" stop-color="#5A5A5A"/>
<stop offset="0.598958" stop-color="#D1D1D1" stop-opacity="0"/>
<stop offset="0.796875" stop-color="#393939"/>
<stop offset="1" stop-color="#D1D1D1" stop-opacity="0"/>
</linearGradient>
<linearGradient id="paint4_linear" x1="2346.37" y1="-15.6044" x2="-370.696" y2="695.983" gradientUnits="userSpaceOnUse">
<stop stop-color="#888888"/>
<stop offset="0.213542" stop-color="white" stop-opacity="0"/>
<stop offset="0.40625" stop-color="#888888"/>
<stop offset="0.598958" stop-color="white" stop-opacity="0"/>
<stop offset="0.796875" stop-color="#888888"/>
<stop offset="1" stop-color="white" stop-opacity="0"/>
</linearGradient>
<linearGradient id="paint5_linear" x1="214.106" y1="265.211" x2="30.8346" y2="275.507" gradientUnits="userSpaceOnUse">
<stop stop-color="white"/>
<stop offset="1" stop-color="white" stop-opacity="0"/>
</linearGradient>
</defs>
</svg>
