<svg width="360" height="563" viewBox="0 0 360 563" fill="none" xmlns="http://www.w3.org/2000/svg">
<g filter="url(#filter0_b)">
<path d="M-104.747 60.3293C-284.749 13.0737 -506.932 0.419925 -564.104 0V1420.5H1434.9V0C1363.99 0 1259.69 73.7669 1082.02 71.6673C904.356 69.5676 767.805 0 600.59 0C433.375 0 120.256 119.399 -104.747 60.3293Z" fill="white" fill-opacity="0.3"/>
<path d="M-563.659 1420.05V0.448876C-505.802 0.931086 -284.346 13.64 -104.86 60.76C7.74432 90.3218 142.361 75.2206 269.669 52.7543C305.212 46.482 340.214 39.6299 374.009 33.014C400.721 27.7846 426.68 22.7027 451.558 18.1713C507.941 7.90088 558.83 0.445369 600.59 0.445369C683.99 0.445369 759.761 17.7623 836.872 35.3854L837.288 35.4804C914.531 53.1339 993.13 71.0621 1082.02 72.1126C1170.92 73.1632 1241.46 55.2321 1298.63 37.0454C1312.02 32.7874 1324.65 28.5214 1336.61 24.4818C1350.23 19.8865 1362.97 15.584 1374.96 11.9192C1397.29 5.09664 1416.91 0.522689 1434.45 0.44634V1420.05H-563.659Z" stroke="url(#paint0_linear)" stroke-opacity="0.9" stroke-width="0.890739"/>
</g>
<path d="M1965.21 75.914C1612.36 54.9817 1634.45 16.1076 1484.87 16.1074C1289.13 16.1073 1190.61 96.5969 938.21 96.5969C703.192 96.5969 689.798 85.8501 532.562 55.7292C344.547 19.7122 183.707 52.43 130.133 69.684C38.0576 99.3381 -13.4531 107.869 -143.518 112.545C-261.349 116.782 -444.325 96.1079 -493.792 82.9145" stroke="url(#paint1_linear)" stroke-width="0.890739" stroke-linecap="round"/>
<path d="M-795 68.872C-435.406 47.9397 -457.921 9.06556 -305.48 9.06543C-105.998 9.06526 -5.6001 89.5549 251.627 89.5549C491.138 89.5549 504.788 78.8081 665.029 48.6872C856.637 12.6702 1020.55 45.388 1075.15 62.642C1168.98 92.2961 1221.48 100.827 1354.03 105.503C1474.11 109.74 1660.59 89.0659 1711 75.8725" stroke="url(#paint2_linear)" stroke-width="0.890739" stroke-linecap="round"/>
<defs>
<filter id="filter0_b" x="-594.104" y="-30" width="2059" height="1480.5" filterUnits="userSpaceOnUse" color-interpolation-filters="sRGB">
<feFlood flood-opacity="0" result="BackgroundImageFix"/>
<feGaussianBlur in="BackgroundImage" stdDeviation="15"/>
<feComposite in2="SourceAlpha" operator="in" result="effect1_backgroundBlur"/>
<feBlend mode="normal" in="SourceGraphic" in2="effect1_backgroundBlur" result="shape"/>
</filter>
<linearGradient id="paint0_linear" x1="622.526" y1="9.36982" x2="4.72257" y2="508.388" gradientUnits="userSpaceOnUse">
<stop offset="0.327108" stop-color="#BCBCBC"/>
<stop offset="1" stop-color="white" stop-opacity="0"/>
</linearGradient>
<linearGradient id="paint1_linear" x1="735.708" y1="16.1074" x2="999.795" y2="220.307" gradientUnits="userSpaceOnUse">
<stop stop-color="#DFDFDF"/>
<stop offset="0.640625" stop-color="#E4A5A5" stop-opacity="0"/>
</linearGradient>
<linearGradient id="paint2_linear" x1="458" y1="9.06536" x2="58.2072" y2="256.513" gradientUnits="userSpaceOnUse">
<stop stop-color="#C4C4C4"/>
<stop offset="1" stop-color="#828282" stop-opacity="0"/>
</linearGradient>
</defs>
</svg>
