<svg width="79" height="18" viewBox="0 0 79 18" fill="none" xmlns="http://www.w3.org/2000/svg">
<path d="M0.439941 0.596191H7.08184C8.41944 0.596191 9.41111 0.934437 10.0569 1.61093C10.718 2.27204 11.0485 3.30215 11.0485 4.70125C11.0485 5.60836 10.8179 6.39248 10.3567 7.05359C9.91079 7.71471 9.34962 8.18364 8.67312 8.46038C9.58024 8.64488 10.2952 9.08306 10.8179 9.77492C11.356 10.4514 11.6251 11.3508 11.6251 12.4732C11.6251 13.3496 11.4406 14.1106 11.0716 14.7563C10.718 15.3867 10.226 15.871 9.59561 16.2093C8.96525 16.5475 8.26569 16.7166 7.49696 16.7166H0.439941V0.596191ZM7.42777 8.18364C7.95051 8.18364 8.4425 8.04526 8.90375 7.76852C9.36499 7.49177 9.73398 7.09203 10.0107 6.56929C10.3028 6.04654 10.4489 5.42387 10.4489 4.70125C10.4489 3.3944 10.1568 2.4796 9.57255 1.95686C9.00368 1.41874 8.2042 1.14968 7.17409 1.14968H1.08568V8.18364H7.42777ZM7.49696 16.1631C8.52706 16.1631 9.37268 15.8633 10.0338 15.2637C10.6949 14.6641 11.0255 13.7339 11.0255 12.4732C11.0255 11.2125 10.6795 10.2746 9.98767 9.65961C9.2958 9.04462 8.35794 8.73713 7.17409 8.73713H1.08568V16.1631H7.49696Z" fill="white"/>
<path fill-rule="evenodd" clip-rule="evenodd" d="M70.941 2.63125C72.0255 1.95675 73.2224 1.6195 74.5318 1.6195C75.3914 1.6195 76.1056 1.71869 76.6743 1.91707C77.2562 2.10223 77.8844 2.42626 78.5589 2.88915V2.15513C77.8448 1.74514 77.2165 1.46079 76.6743 1.30209C76.1321 1.13016 75.398 1.04419 74.4723 1.04419C73.1365 1.04419 71.8734 1.38805 70.6831 2.07578C69.5061 2.76351 68.5604 3.70252 67.8463 4.89282C67.1453 6.08311 66.7948 7.39905 66.7948 8.84063C66.7948 10.3351 67.1321 11.6841 67.8066 12.8876C68.4943 14.0779 69.4201 15.017 70.584 15.7047C71.7478 16.3792 73.0241 16.7164 74.4127 16.7164C75.2063 16.7164 75.9337 16.6239 76.5949 16.4387C77.2694 16.2668 77.9241 15.989 78.5589 15.6055V14.8715L78.5193 14.8913V10.0706H72.9447V10.6459H77.8646V15.3079C77.3488 15.5989 76.8066 15.8105 76.2379 15.9427C75.6824 16.075 75.0476 16.1411 74.3334 16.1411C73.1166 16.1411 71.9792 15.8171 70.9212 15.169C69.8764 14.5078 69.0366 13.6217 68.4017 12.5107C67.7669 11.3998 67.4495 10.1962 67.4495 8.90015C67.4495 7.61727 67.7603 6.42036 68.3819 5.30942C69.0167 4.18525 69.8698 3.29253 70.941 2.63125ZM61.7116 17.5164C61.6434 16.2989 61.2971 15.1602 60.6728 14.1001C59.9851 12.8965 59.0527 11.9443 57.8756 11.2434C56.6985 10.5424 55.409 10.1919 54.0071 10.1919C52.6185 10.1919 51.329 10.549 50.1387 11.2632C48.9484 11.9641 48.0028 12.9164 47.3018 14.1199C46.6782 15.1788 46.332 16.311 46.2632 17.5164H46.9205C46.9912 16.4063 47.3035 15.3668 47.8573 14.3976C48.5053 13.2867 49.3716 12.4072 50.4561 11.7591C51.5406 11.0979 52.7243 10.7672 54.0071 10.7672C55.2768 10.7672 56.4539 11.0979 57.5384 11.7591C58.6228 12.4072 59.4825 13.2867 60.1173 14.3976C60.6711 15.3668 60.9834 16.4063 61.054 17.5164H61.7116Z" fill="white"/>
<line x1="15.7812" y1="16.288" x2="23.0726" y2="16.288" stroke="white" stroke-width="0.857085"/>
<line x1="30.4908" y1="1.23584" x2="30.4908" y2="16.5641" stroke="white" stroke-width="0.592863"/>
<line x1="40.1519" y1="16.3838" x2="30.1964" y2="16.3838" stroke="white" stroke-width="0.592863"/>
</svg>
